<?xml version="1.0" standalone="no"?>
<!DOCTYPE svg PUBLIC "-//W3C//DTD SVG 20010904//EN"
 "http://www.w3.org/TR/2001/REC-SVG-20010904/DTD/svg10.dtd">
<svg version="1.0" xmlns="http://www.w3.org/2000/svg"
 width="600.000000pt" height="600.000000pt" viewBox="0 0 600.000000 600.000000"
 preserveAspectRatio="xMidYMid meet">

<g transform="translate(0.000000,600.000000) scale(0.100000,-0.100000)"
fill="#000000" stroke="none">
<path d="M1514 5726 c-81 -37 -144 -134 -144 -218 0 -40 -22 -78 -64 -111 -53
-41 -58 -85 -16 -143 49 -69 45 -105 -19 -164 -28 -26 -51 -50 -51 -53 0 -4
59 -7 130 -7 126 0 130 1 120 19 -5 11 -10 30 -10 43 1 54 15 49 106 -33 88
-80 89 -80 98 -55 10 25 11 25 130 28 l121 3 0 255 c0 238 -1 258 -21 300 -51
110 -130 160 -254 160 -58 0 -87 -6 -126 -24z m364 -216 c12 -15 22 -41 22
-57 0 -26 -3 -28 -40 -29 -42 -1 -70 -17 -70 -40 0 -8 7 -14 15 -14 8 0 15 4
15 8 0 9 44 32 60 32 6 0 10 -4 10 -10 0 -5 -8 -10 -18 -10 -26 0 -62 -28 -62
-48 1 -15 2 -15 11 2 9 15 13 16 20 5 6 -11 11 -11 21 -1 9 9 9 12 -2 12 -10
0 -11 3 -3 11 25 25 36 -2 30 -72 -6 -76 -26 -120 -87 -196 -48 -61 -61 -64
-144 -33 -62 24 -150 98 -127 107 8 3 25 16 38 29 31 31 30 83 -3 139 -18 31
-23 51 -19 67 9 28 44 68 60 68 7 0 25 12 41 28 24 23 38 27 85 28 35 0 66 6
80 16 22 15 25 15 34 1 6 -9 20 -28 33 -43z"/>
<path d="M1595 5430 c-16 -7 -11 -9 20 -9 22 -1 51 -8 64 -17 17 -13 25 -14
34 -4 29 28 -65 53 -118 30z"/>
<path d="M1608 5393 c-30 -7 -20 -24 10 -17 18 4 23 3 13 -4 -10 -8 -11 -11
-1 -17 8 -5 18 -1 25 8 11 15 13 15 28 -1 10 -9 17 -11 17 -5 0 28 -50 47 -92
36z"/>
<path d="M1755 5250 c8 -13 35 -13 55 0 11 7 5 10 -23 10 -23 0 -36 -4 -32
-10z"/>
<path d="M1715 5201 l-50 -6 37 -28 c41 -32 84 -33 102 -4 9 15 7 21 -8 33
-11 8 -22 13 -25 12 -3 0 -28 -4 -56 -7z"/>
<path d="M3705 5135 c68 -18 92 -18 99 0 4 13 -7 15 -72 14 l-77 -1 50 -13z"/>
<path d="M3163 5128 c4 -14 64 -13 113 2 23 6 13 8 -44 9 -55 1 -73 -2 -69
-11z"/>
<path d="M2800 4570 c20 -13 63 -13 55 0 -3 6 -21 10 -38 10 -24 0 -28 -3 -17
-10z"/>
<path d="M2740 4543 c0 -12 89 -33 95 -23 3 4 -11 11 -31 14 -19 4 -42 10 -50
13 -8 3 -14 1 -14 -4z"/>
<path d="M2528 4383 c-23 -4 -28 -12 -47 -82 -12 -42 -21 -82 -21 -89 0 -15
-12 -17 -195 -43 -88 -12 -171 -28 -185 -35 -14 -7 -42 -15 -63 -19 l-37 -7 0
-74 0 -74 -269 0 -269 0 -31 -80 c-93 -245 -130 -416 -176 -825 -34 -304 -75
-683 -75 -697 0 -5 15 -8 33 -8 55 0 104 -19 157 -61 65 -51 107 -69 164 -69
52 0 56 -7 56 -90 l0 -58 76 -7 c68 -7 144 -2 201 11 l21 6 -25 -63 c-19 -47
-30 -104 -43 -228 -9 -91 -17 -167 -16 -168 4 -5 273 374 284 400 17 40 15 87
-12 215 l-23 112 30 26 c16 14 52 36 80 50 l49 26 -6 51 c-6 47 -69 501 -161
1161 -19 138 -32 253 -28 257 5 3 59 23 120 44 62 20 169 58 237 84 l123 48 7
-241 c4 -133 13 -441 21 -686 25 -775 26 -762 -29 -776 -15 -3 -26 -15 -29
-30 -4 -21 -1 -24 25 -24 40 0 84 48 96 103 8 39 3 245 -36 1407 -4 135 -5
252 0 261 4 9 30 26 58 38 35 15 54 30 62 49 15 39 18 132 5 165 -11 24 -17
27 -57 26 -25 -1 -57 -4 -72 -6z"/>
<path d="M3715 4328 c-114 -38 -321 -35 -505 8 -19 4 -21 3 -10 -4 31 -21 185
-42 300 -42 113 0 241 22 288 49 28 17 -5 12 -73 -11z"/>
<path d="M5131 3393 c-1 -15 -141 -159 -141 -146 0 4 -4 3 -8 -3 -8 -13 -117
-66 -177 -86 -35 -12 -76 -37 -230 -137 -22 -14 -44 -28 -50 -31 -71 -36 -165
-127 -165 -162 0 -14 -8 -18 -35 -18 -52 0 -141 -37 -170 -71 -32 -39 -35
-103 -5 -121 17 -11 19 -20 13 -66 -5 -48 -4 -54 15 -59 15 -3 24 -16 28 -40
5 -25 18 -43 47 -64 22 -16 46 -29 53 -29 22 0 23 -14 9 -111 -73 -487 -88
-691 -74 -971 6 -126 9 -231 7 -234 -8 -7 -92 600 -90 646 1 26 9 50 17 56 18
13 20 45 4 61 -8 8 -7 17 5 34 9 13 16 32 16 42 0 31 -52 74 -98 82 -37 6 -45
12 -58 43 -16 39 -12 65 9 56 7 -2 26 5 41 17 24 19 27 27 23 63 -3 23 -12 61
-21 86 -8 25 -20 64 -26 86 -8 35 -15 43 -40 47 -34 7 -47 20 -103 107 l-42
65 -172 2 c-95 2 -173 0 -173 -3 0 -36 134 -118 166 -101 13 7 15 6 9 -3 -6
-10 -4 -12 7 -7 11 4 14 1 11 -12 -5 -19 42 -58 63 -53 7 1 14 -5 18 -13 4
-11 2 -14 -7 -10 -6 4 5 -9 25 -27 20 -18 51 -51 68 -73 18 -22 37 -40 43 -40
7 0 12 -7 12 -16 0 -8 10 -38 21 -65 48 -108 57 -134 50 -141 -4 -4 -17 4 -29
19 -31 36 -108 81 -202 118 -44 17 -84 35 -90 40 -5 4 -48 17 -93 28 -46 11
-86 23 -89 25 -2 3 -5 77 -6 165 -1 88 -5 163 -9 167 -21 22 -28 -16 -28 -161
l0 -155 -47 33 c-27 18 -56 41 -66 53 -18 20 -18 20 -12 -10 10 -46 44 -94 86
-122 l39 -26 0 -598 0 -598 -76 -205 c-84 -228 -111 -271 -200 -316 -39 -20
-64 -25 -120 -25 -61 0 -77 4 -120 30 -57 36 -103 104 -111 164 -11 85 51 178
135 200 90 25 182 -41 182 -131 0 -55 -49 -108 -100 -108 -51 0 -90 31 -90 73
0 37 7 50 36 65 47 25 97 -43 52 -71 -13 -9 -21 -7 -36 7 -15 13 -22 14 -28 5
-8 -14 29 -49 53 -49 21 0 63 46 63 70 0 31 -44 70 -79 70 -43 0 -60 -9 -76
-41 -24 -45 -19 -87 14 -119 54 -54 129 -52 180 5 90 103 12 255 -132 255 -62
0 -109 -22 -152 -72 -67 -79 -68 -186 -1 -278 126 -173 398 -127 491 84 12 28
46 117 76 199 30 81 56 147 59 147 3 0 34 -80 70 -178 36 -97 79 -197 95 -222
62 -92 177 -148 278 -137 50 6 142 51 186 91 l24 21 -14 -22 c-10 -17 -10 -24
0 -37 7 -8 10 -19 7 -25 -9 -14 20 -21 90 -21 41 0 63 4 59 10 -3 6 -32 10
-64 10 -43 0 -62 5 -74 18 -19 21 -22 39 -8 44 10 3 17 44 27 148 5 47 1 63
-23 110 -17 34 -43 65 -68 83 -36 25 -47 27 -110 25 -82 -4 -124 -27 -155 -88
-35 -69 -22 -132 40 -184 45 -38 108 -36 152 3 28 25 33 36 33 74 0 61 -32 97
-86 97 -29 0 -42 -6 -58 -26 -27 -35 -26 -59 4 -89 29 -30 49 -31 75 -5 27 27
15 48 -12 24 -14 -14 -23 -16 -36 -8 -28 18 -26 51 3 70 25 16 27 16 53 -3 62
-46 25 -133 -57 -133 -32 0 -44 6 -70 35 -58 66 -32 158 55 196 54 25 116 16
123 -16 3 -18 24 -45 35 -45 3 0 3 7 0 15 -12 31 23 4 44 -34 26 -46 29 -115
7 -167 -12 -29 -19 -35 -35 -31 -15 4 -21 1 -19 -11 3 -38 -3 -49 -41 -71 -88
-49 -207 -35 -288 35 -58 49 -72 76 -151 290 l-71 191 0 583 c0 320 1 584 2
585 2 2 61 -34 133 -80 71 -46 134 -81 139 -78 5 4 6 1 3 -4 -8 -13 27 -46 38
-36 4 5 5 3 2 -3 -8 -14 26 -47 38 -37 4 5 6 3 2 -2 -6 -12 45 -75 62 -75 6 0
11 -4 11 -9 0 -16 57 -80 65 -73 5 4 5 2 1 -5 -4 -7 9 -43 28 -80 74 -147 147
-399 170 -583 21 -163 20 -170 -3 -170 -16 0 -22 11 -31 58 -13 60 -82 261
-131 376 -16 37 -29 72 -29 76 0 4 16 18 36 29 50 30 42 53 -22 67 -27 6 -62
19 -76 28 -36 23 -258 48 -258 29 0 -15 68 -52 133 -72 36 -11 88 -31 115 -45
44 -22 52 -32 81 -98 56 -124 88 -219 110 -327 27 -135 28 -131 -16 -132 -21
0 -47 -4 -58 -8 -20 -8 190 -23 235 -16 14 2 54 4 90 5 64 2 64 3 28 13 -21 6
-38 14 -38 19 0 9 53 144 87 220 22 49 32 60 77 82 28 14 81 34 117 46 37 11
77 28 90 38 13 11 31 22 39 25 8 4 -37 6 -100 4 -97 -2 -120 -5 -150 -23 -19
-12 -51 -25 -70 -29 -59 -11 -70 -16 -70 -30 0 -13 40 -50 62 -57 12 -4 -83
-261 -103 -282 -17 -19 -30 10 -35 80 -5 62 1 95 55 309 53 210 97 362 107
374 1 2 15 -9 29 -23 43 -43 120 -32 171 26 33 37 74 113 74 138 0 13 3 20 6
17 9 -8 80 54 76 66 -1 5 2 6 7 2 23 -14 60 28 86 98 14 40 32 79 39 87 35 39
66 117 66 163 l0 47 -42 -26 c-24 -15 -46 -31 -49 -36 -5 -8 -57 -29 -194 -77
-16 -6 -43 -13 -60 -16 -17 -4 -47 -26 -72 -53 -81 -87 -90 -97 -128 -127 -24
-20 -37 -39 -38 -57 -1 -14 -5 -24 -9 -21 -15 8 -8 -48 8 -72 9 -13 13 -33 10
-43 -4 -11 -3 -30 2 -42 6 -16 3 -39 -10 -73 -11 -28 -46 -145 -78 -260 -33
-116 -63 -213 -66 -216 -13 -12 7 216 31 362 55 329 106 464 228 594 139 150
185 182 424 297 115 55 186 127 155 158 -10 10 -62 0 -62 -13 0 -5 -7 -5 -17
-2 -12 5 -14 3 -8 -7 5 -9 4 -11 -4 -6 -6 4 -27 2 -45 -4 -19 -6 -78 -17 -132
-25 -124 -17 -169 -28 -239 -60 -37 -16 -54 -29 -49 -36 4 -8 3 -9 -5 -5 -24
16 -134 -84 -146 -132 -3 -15 -16 -47 -28 -72 -12 -25 -23 -72 -25 -106 -4
-52 -1 -65 16 -82 11 -11 25 -21 31 -23 7 -3 1 -28 -18 -74 -63 -151 -130
-530 -132 -743 -1 -131 -2 -140 -10 -76 -17 148 -27 444 -18 565 21 296 74
609 130 762 17 48 30 89 29 93 -1 4 2 10 7 13 16 11 93 126 93 139 0 7 4 12 8
12 9 0 80 93 89 117 7 18 83 93 170 168 32 28 79 71 106 96 26 25 47 44 47 41
0 -4 18 11 40 33 29 28 36 41 27 47 -9 7 -8 8 3 7 8 -1 20 -1 27 0 15 1 74 82
67 93 -3 4 -1 8 5 8 14 0 34 70 28 100 -2 14 -5 19 -6 13z m-1251 -1068 c0 -2
-9 -3 -19 -2 -11 0 -18 5 -15 9 4 6 34 0 34 -7z m60 -71 c0 -8 -4 -12 -10 -9
-5 3 -10 13 -10 21 0 8 5 12 10 9 6 -3 10 -13 10 -21z m-462 -64 c3 -7 0 -10
-7 -6 -6 4 -11 1 -11 -6 0 -10 -3 -9 -9 2 -6 8 -7 18 -4 23 7 11 26 4 31 -13z
m547 -59 c-3 -6 -11 -11 -16 -11 -5 0 -4 6 3 14 14 16 24 13 13 -3z m771 -99
c-17 -16 -18 -16 -5 5 7 12 15 20 18 17 3 -2 -3 -12 -13 -22z m-891 8 c3 -6
-1 -7 -9 -4 -18 7 -21 14 -7 14 6 0 13 -4 16 -10z m-190 -20 c3 -5 1 -10 -4
-10 -6 0 -11 5 -11 10 0 6 2 10 4 10 3 0 8 -4 11 -10z m839 -198 c2 -4 -4 -8
-14 -8 -10 0 -16 4 -14 8 3 4 9 8 14 8 5 0 11 -4 14 -8z m-420 -189 c8 -29 48
-315 44 -318 -2 -2 -24 66 -50 153 -42 143 -45 157 -30 169 23 17 30 16 36 -4z
m169 -733 c3 -11 1 -20 -4 -20 -5 0 -9 9 -9 20 0 11 2 20 4 20 2 0 6 -9 9 -20z"/>
<path d="M1419 1475 c-53 -93 -104 -184 -112 -201 -29 -57 -68 -93 -128 -120
-77 -35 -116 -79 -125 -141 -3 -26 -26 -86 -50 -134 -24 -47 -44 -90 -44 -97
0 -30 23 -5 70 78 29 50 57 89 64 87 7 -2 11 -35 11 -93 1 -125 11 -145 104
-200 78 -46 138 -68 171 -62 17 3 17 6 5 43 -8 22 -30 55 -50 73 l-36 34 52
174 c49 163 56 180 111 255 l58 80 -2 197 -3 197 -96 -170z"/>
<path d="M1473 746 c-45 -63 -53 -101 -36 -161 8 -28 18 -99 24 -159 5 -61 12
-112 14 -115 12 -11 16 13 18 110 3 129 14 134 73 30 60 -108 75 -116 204
-115 74 1 117 6 144 18 l39 16 -23 25 c-25 26 -98 55 -141 55 -25 0 -44 21
-150 163 -67 89 -124 165 -128 170 -4 4 -21 -13 -38 -37z"/>
<path d="M4067 634 c3 -27 7 -51 9 -53 8 -9 3 75 -5 88 -5 8 -7 -5 -4 -35z"/>
<path d="M4112 605 c0 -16 2 -22 5 -12 2 9 2 23 0 30 -3 6 -5 -1 -5 -18z"/>
<path d="M4065 551 c-3 -5 -1 -12 5 -16 5 -3 10 1 10 9 0 18 -6 21 -15 7z"/>
<path d="M0 115 l0 -115 3000 0 3000 0 0 115 0 115 -3000 0 -3000 0 0 -115z
m2390 50 c0 -27 3 -33 15 -29 19 8 45 -13 45 -36 0 -26 -21 -39 -52 -33 -27 5
-28 7 -28 69 0 36 4 64 10 64 6 0 10 -16 10 -35z m330 -30 c0 -37 -4 -65 -10
-65 -11 0 -14 113 -3 123 12 13 13 7 13 -58z m40 -6 c0 -33 -4 -59 -10 -59 -6
0 -10 29 -10 66 0 41 4 63 10 59 6 -3 10 -33 10 -66z m110 61 c0 -5 -4 -10
-10 -10 -14 0 -12 -37 3 -44 10 -5 10 -7 0 -12 -7 -3 -13 -17 -13 -30 0 -13
-4 -24 -10 -24 -11 0 -14 113 -3 123 10 11 33 8 33 -3z m350 -59 c0 -56 -1
-59 -27 -64 -36 -7 -55 9 -51 42 2 21 8 26 31 26 24 -1 27 3 27 33 0 19 4 31
10 27 6 -3 10 -32 10 -64z m320 4 c0 -37 -4 -65 -10 -65 -6 0 -10 28 -10 65 0
37 4 65 10 65 6 0 10 -28 10 -65z m270 1 c0 -59 -2 -64 -24 -68 -31 -6 -56 8
-56 31 0 24 25 45 45 37 12 -4 15 2 15 29 0 19 5 35 10 35 6 0 10 -28 10 -64z
m-1870 24 c11 -11 20 -28 20 -37 1 -17 1 -17 11 0 12 20 40 22 57 5 20 -20 14
-28 -19 -28 -19 0 -28 -4 -23 -11 3 -6 18 -8 33 -5 25 6 25 6 7 -9 -26 -20
-31 -19 -54 5 -17 18 -20 19 -32 5 -7 -8 -28 -15 -46 -15 l-34 0 0 55 c0 54 0
55 30 55 17 0 39 -9 50 -20z m190 10 c0 -5 -5 -10 -11 -10 -5 0 -7 5 -4 10 3
6 8 10 11 10 2 0 4 -4 4 -10z m536 -41 c14 -28 22 -54 18 -57 -4 -4 -9 -1 -11
6 -6 14 -59 16 -68 2 -3 -5 -10 -10 -15 -10 -6 0 2 25 17 55 15 30 28 55 30
55 1 0 14 -23 29 -51z m-576 1 c0 -5 -5 -10 -12 -10 -6 0 -3 -6 8 -14 18 -14
18 -16 2 -32 -9 -9 -21 -13 -27 -10 -18 11 -13 26 7 19 16 -6 15 -5 -1 15 -11
11 -16 26 -12 31 8 14 35 14 35 1z m40 -25 c0 -19 -4 -35 -10 -35 -11 0 -13
30 -4 54 10 25 14 19 14 -19z m98 -3 c4 -42 -13 -72 -43 -72 -24 0 -42 16 -30
28 3 3 10 0 15 -7 9 -16 40 -8 40 10 0 6 -7 8 -16 5 -22 -8 -44 11 -44 39 0
30 9 36 44 32 26 -3 31 -8 34 -35z m80 1 c4 -38 -15 -45 -20 -8 -4 35 -22 36
-26 3 -5 -41 -22 -34 -22 8 0 34 1 35 33 32 28 -3 32 -7 35 -35z m202 16 c24
46 20 11 -4 -38 -26 -51 -56 -74 -34 -26 8 19 8 31 0 50 -17 37 -14 44 7 16
l19 -24 12 22z m410 10 c0 -5 -6 -8 -12 -6 -8 1 -14 -10 -16 -26 -2 -15 -7
-25 -11 -23 -4 3 -6 18 -4 33 3 20 11 29 24 30 10 1 19 -2 19 -8z m71 -5 c11
-14 13 -14 21 0 11 19 39 21 56 4 20 -20 14 -28 -19 -28 -19 0 -28 -4 -23 -11
3 -6 18 -8 33 -5 25 6 25 6 7 -9 -26 -20 -33 -19 -53 5 -18 21 -80 29 -67 9 3
-6 17 -8 30 -5 29 8 31 0 3 -14 -15 -9 -24 -8 -35 1 -14 12 -19 51 -7 62 12
12 40 7 54 -9z m309 1 c14 -17 5 -51 -16 -59 -24 -9 -54 12 -54 39 0 34 47 48
70 20z m36 -7 c6 -21 7 -21 20 -3 14 18 14 18 28 0 13 -18 14 -18 20 3 4 12
12 22 17 22 13 0 12 -5 -10 -41 -17 -28 -20 -29 -30 -12 -11 17 -11 17 -22 0
-10 -17 -13 -16 -30 12 -22 36 -23 41 -10 41 5 0 13 -10 17 -22z m161 -18 c1
-34 1 -34 -5 -5 -4 17 -14 30 -22 30 -8 0 -18 -13 -21 -30 -7 -30 -7 -30 -8 6
-1 33 1 36 27 35 24 -1 27 -5 29 -36z m117 34 c22 -9 20 -51 -3 -64 -25 -13
-48 -4 -56 21 -11 35 20 58 59 43z m106 -29 c0 -27 -5 -34 -24 -37 -31 -6 -56
8 -56 30 0 26 19 41 51 40 26 -1 29 -5 29 -33z m210 24 c0 -6 -6 -9 -14 -6
-17 7 -40 -18 -31 -33 3 -5 16 -10 28 -10 15 0 18 -3 10 -11 -17 -17 -53 7
-53 36 0 13 6 26 13 28 22 10 47 7 47 -4z m78 -1 c32 -32 -8 -80 -48 -58 -11
6 -20 19 -20 28 0 36 43 55 68 30z m130 -26 c4 -37 -15 -44 -20 -7 -4 34 -22
33 -27 -2 l-4 -28 -6 29 c-8 38 -25 40 -29 4 -5 -40 -22 -34 -22 7 l0 35 53
-3 c51 -2 52 -3 55 -35z m-2455 11 c-29 -2 -78 -2 -110 0 -32 2 -8 3 52 3 61
0 87 -1 58 -3z m1124 1 c-3 -3 -12 -4 -19 -1 -8 3 -5 6 6 6 11 1 17 -2 13 -5z
m316 -1 c-7 -2 -19 -2 -25 0 -7 3 -2 5 12 5 14 0 19 -2 13 -5z m1310 0 c-29
-2 -78 -2 -110 0 -32 2 -8 3 52 3 61 0 87 -1 58 -3z"/>
<path d="M2394 115 c-7 -18 3 -35 21 -35 18 0 26 25 12 39 -15 15 -27 14 -33
-4z"/>
<path d="M3159 114 c-9 -11 -9 -18 -1 -26 14 -14 42 -3 42 16 0 20 -27 27 -41
10z"/>
<path d="M3757 124 c-16 -16 -7 -44 14 -44 15 0 20 5 17 22 -3 22 -19 33 -31
22z"/>
<path d="M1880 125 c0 -46 7 -53 41 -35 29 16 25 58 -7 70 -14 6 -27 10 -30
10 -2 0 -4 -20 -4 -45z"/>
<path d="M1985 120 c-3 -5 3 -10 15 -10 12 0 18 5 15 10 -3 6 -10 10 -15 10
-5 0 -12 -4 -15 -10z"/>
<path d="M2627 130 c-4 -15 0 -20 14 -20 17 0 18 3 9 20 -6 11 -12 20 -14 20
-2 0 -6 -9 -9 -20z"/>
<path d="M2169 114 c-9 -11 -9 -18 -1 -26 14 -14 42 -3 42 16 0 20 -27 27 -41
10z"/>
<path d="M2950 120 c-12 -8 -10 -10 8 -10 13 0 20 4 17 10 -7 12 -6 12 -25 0z"/>
<path d="M3025 120 c-3 -5 3 -10 15 -10 12 0 18 5 15 10 -3 6 -10 10 -15 10
-5 0 -12 -4 -15 -10z"/>
<path d="M3249 114 c-9 -11 -9 -18 -1 -26 14 -14 42 -3 42 16 0 20 -27 27 -41
10z"/>
<path d="M3581 121 c-17 -11 -7 -41 13 -41 22 0 30 20 15 36 -9 8 -19 10 -28
5z"/>
<path d="M3667 124 c-16 -16 -7 -44 14 -44 15 0 20 5 17 22 -3 22 -19 33 -31
22z"/>
<path d="M3954 109 c-9 -15 12 -33 30 -26 9 4 16 13 16 22 0 17 -35 21 -46 4z"/>
</g>
</svg>
