<?xml version="1.0" standalone="no"?>
<!DOCTYPE svg PUBLIC "-//W3C//DTD SVG 20010904//EN"
 "http://www.w3.org/TR/2001/REC-SVG-20010904/DTD/svg10.dtd">
<svg version="1.0" xmlns="http://www.w3.org/2000/svg"
 width="600.000000pt" height="853.000000pt" viewBox="0 0 600.000000 853.000000"
 preserveAspectRatio="xMidYMid meet">

<g transform="translate(0.000000,853.000000) scale(0.100000,-0.100000)"
fill="#000000" stroke="none">
<path d="M0 5035 l0 -3495 157 4 c87 2 195 8 239 11 74 7 83 6 102 -13 l20
-20 -39 -17 c-21 -10 -39 -22 -39 -27 0 -6 -29 -8 -67 -5 -84 6 -133 17 -133
28 0 5 -54 9 -120 9 l-120 0 0 -755 0 -755 341 0 c224 0 338 3 334 10 -3 6
-15 10 -25 10 -28 0 -51 11 -44 21 3 5 -8 17 -25 27 -27 15 -71 86 -60 97 3 2
122 7 264 10 251 5 294 9 305 26 8 11 133 -6 138 -19 2 -7 10 -12 18 -12 9 0
14 -11 14 -35 0 -19 -4 -35 -10 -35 -5 0 -10 -11 -10 -25 l0 -25 133 6 c156 7
277 -7 314 -36 32 -25 53 -26 53 -1 0 11 9 21 23 24 32 7 103 0 126 -12 25
-14 85 -14 135 0 34 9 37 13 22 21 -10 5 -26 8 -37 5 -10 -3 -22 -1 -25 4 -3
5 22 9 55 9 53 0 61 -2 61 -19 0 -54 -31 -51 545 -51 381 0 536 3 541 11 8 14
-14 29 -43 29 -13 0 -23 4 -23 9 0 5 -10 11 -22 14 -13 2 52 4 143 3 l167 -1
12 -33 11 -32 687 0 c378 1 706 5 730 9 23 5 42 4 42 0 0 -5 34 -9 76 -9 60 0
74 3 66 13 -5 6 -19 28 -30 48 -11 20 -25 45 -31 55 -6 11 -15 30 -21 44 -5
14 -16 33 -22 42 -10 14 -10 21 4 34 19 20 68 12 68 -11 0 -8 5 -15 10 -15 6
0 10 -7 10 -16 0 -10 24 -41 52 -69 59 -59 70 -72 87 -103 11 -21 17 -22 196
-22 175 0 185 1 185 19 0 30 28 33 56 6 25 -25 26 -25 214 -25 l190 0 0 1831
c0 1094 -4 1829 -9 1827 -5 -1 -37 -25 -72 -53 -103 -83 -95 -80 -91 -35 4 42
-12 75 -31 63 -7 -4 -8 0 -3 13 4 10 14 48 22 84 20 89 31 113 50 106 8 -3 12
-2 9 3 -3 5 -1 12 5 16 5 3 10 15 10 25 0 27 54 113 85 136 l25 19 0 2247 0
2248 -220 0 -220 0 5 -23 c4 -16 0 -29 -15 -42 -14 -13 -17 -21 -9 -26 7 -4
14 -30 17 -58 4 -46 2 -51 -19 -60 -33 -12 -77 12 -84 47 -4 15 -8 37 -11 49
-2 13 2 25 11 31 14 7 13 11 -5 32 -11 13 -20 29 -20 37 0 10 -39 13 -200 13
-199 0 -206 -1 -201 -32 0 -4 -8 -12 -20 -18 -15 -9 -30 -7 -64 6 -25 9 -50
23 -56 30 -9 12 -103 14 -530 14 -510 0 -518 0 -554 -21 -26 -16 -46 -20 -75
-16 -24 3 -41 1 -44 -7 -3 -6 -3 1 0 17 l6 27 -181 0 c-105 0 -181 -4 -181 -9
0 -5 -7 -17 -17 -26 -20 -21 -80 -12 -104 16 -22 25 -70 25 -89 -1 -8 -12 -26
-28 -39 -37 -22 -14 -24 -14 -18 1 4 11 2 16 -6 14 -6 -1 -25 6 -40 16 -27 18
-29 18 -90 0 -34 -10 -69 -27 -78 -38 -19 -24 -73 -26 -95 -4 -13 13 -14 19
-3 36 8 12 20 23 29 25 8 2 -102 4 -245 5 l-261 2 1 -27 c0 -20 -10 -33 -40
-54 -41 -29 -75 -35 -110 -18 -17 7 -16 9 10 8 53 -2 66 1 60 11 -3 6 -19 10
-34 10 -31 0 -51 16 -51 42 0 22 -62 35 -95 20 -23 -11 -85 -91 -85 -111 0 -6
12 -8 29 -5 33 7 71 -10 71 -31 0 -23 -60 -85 -84 -85 -11 0 -27 -4 -34 -8
-18 -12 -26 -62 -10 -63 70 -6 73 -5 76 24 6 50 50 65 148 52 44 -6 50 -10 48
-29 -1 -11 -3 -28 -3 -36 -1 -13 -3 -13 -10 0 -6 8 -7 18 -5 22 3 4 1 8 -5 8
-22 0 -20 -21 5 -50 20 -22 36 -30 61 -30 23 0 36 -6 40 -17 10 -27 53 -68 72
-68 9 0 17 -10 19 -23 3 -18 9 -22 29 -19 14 2 32 12 39 22 10 14 21 16 50 12
21 -4 41 -12 45 -18 4 -8 19 -9 43 -5 23 4 36 3 36 -4 0 -5 11 -10 25 -10 14
0 25 4 25 9 0 5 11 11 25 14 25 4 25 4 9 -20 -9 -14 -12 -29 -7 -33 4 -5 47
-11 95 -14 48 -3 96 -9 106 -15 42 -22 64 -9 74 46 1 5 15 13 32 19 24 8 34 7
42 -3 6 -7 16 -13 22 -13 23 0 30 -33 12 -53 -26 -28 -6 -77 32 -77 10 0 21
-6 24 -13 3 -8 18 -13 35 -12 34 2 48 -17 29 -40 -9 -11 -9 -18 3 -30 20 -19
26 -19 49 2 16 14 18 14 18 0 0 -10 6 -13 20 -10 11 3 20 11 20 18 0 13 35 27
44 17 3 -3 6 -14 6 -24 0 -19 25 -25 35 -8 3 6 11 10 16 10 6 0 8 -4 5 -8 -2
-4 7 -7 22 -6 38 2 39 3 22 15 -13 9 -13 10 0 5 8 -3 22 -9 32 -12 24 -9 28
-49 6 -68 -27 -24 -62 -19 -92 11 -24 23 -29 25 -51 13 -13 -7 -31 -10 -40 -6
-9 3 -30 -1 -46 -9 -26 -14 -30 -14 -35 -1 -5 13 -9 12 -27 -5 -30 -27 -57
-32 -106 -19 -30 8 -45 19 -53 38 -7 15 -13 29 -15 31 -2 3 -25 4 -53 2 -42
-2 -53 2 -80 27 -16 16 -30 37 -30 46 0 9 -8 16 -17 16 -13 0 -14 -3 -5 -12
25 -25 -1 -100 -29 -82 -7 4 -10 3 -5 -4 3 -6 -2 -15 -11 -21 -17 -10 -17 -10
0 -11 10 0 29 -7 42 -16 13 -9 28 -13 34 -10 5 3 11 -1 14 -8 3 -8 21 -16 39
-18 27 -2 33 -7 33 -26 0 -12 14 -37 30 -55 15 -17 29 -39 30 -47 1 -8 9 -44
18 -80 9 -36 19 -85 22 -110 23 -209 39 -287 66 -309 11 -9 23 -38 28 -66 5
-27 14 -61 19 -74 5 -15 4 -41 -5 -74 -7 -27 -10 -53 -8 -58 3 -4 1 -10 -4
-13 -5 -4 -8 -21 -6 -39 3 -36 -9 -58 -42 -75 -27 -15 -37 -1 -18 24 15 18 15
18 8 -1 -6 -18 -5 -18 10 -6 9 7 17 23 17 35 0 15 -3 17 -9 8 -7 -11 -9 -11
-14 2 -4 9 -3 23 0 33 4 10 2 14 -4 10 -7 -5 -9 0 -6 13 6 23 23 17 24 -8 1
-33 38 93 38 128 -1 29 -2 31 -8 11 -5 -19 -8 -21 -17 -10 -16 20 -23 78 -10
83 7 3 6 5 -1 5 -7 1 -13 6 -13 12 0 6 7 8 16 5 12 -5 15 -2 10 10 -3 8 -6 18
-6 20 0 2 -18 4 -40 4 -34 0 -39 3 -37 20 2 11 6 23 10 26 10 11 8 63 -3 85
-6 10 -13 38 -16 61 -6 57 -25 130 -36 145 -5 6 -10 27 -10 45 0 18 -5 39 -11
46 -5 7 -17 27 -26 45 -11 22 -24 33 -43 35 -16 2 -28 9 -28 17 0 7 -14 18
-31 24 -19 7 -28 15 -23 22 4 7 3 9 -4 5 -6 -3 -23 5 -38 19 -27 25 -84 35
-84 15 0 -5 -5 -10 -11 -10 -5 0 -7 5 -4 10 3 6 -2 10 -12 11 -16 0 -16 1 2 8
16 6 10 10 -28 15 -26 4 -47 12 -47 17 0 6 -5 7 -12 3 -6 -4 -17 1 -24 10 -7
10 -25 18 -41 20 -15 1 -34 5 -41 10 -8 5 -18 4 -25 -3 -15 -15 -32 -14 -20 2
6 6 13 21 17 31 6 19 6 19 -12 3 -10 -9 -24 -17 -30 -17 -6 0 -17 -8 -24 -18
-7 -10 -23 -18 -36 -18 -18 0 -22 5 -18 21 4 16 1 15 -18 -8 -12 -15 -39 -36
-59 -47 -36 -19 -38 -20 -56 -3 -10 10 -21 25 -24 33 -4 12 -6 12 -6 -2 -1 -9
-6 -29 -11 -44 -10 -26 -11 -26 -30 -9 -20 18 -20 17 -21 -26 l-1 -44 -12 33
c-11 32 -12 33 -29 14 -23 -25 -21 -49 8 -101 14 -24 24 -45 23 -46 -2 -1 -13
-6 -25 -9 -18 -6 -23 -3 -24 11 0 10 -3 13 -5 6 -3 -6 2 -23 12 -38 27 -42 7
-46 -43 -9 -29 21 -30 11 -2 -15 24 -22 18 -41 -14 -41 -18 0 -19 -2 -7 -10
11 -7 11 -10 2 -10 -7 0 -11 -4 -7 -10 3 -5 -4 -19 -15 -30 -26 -26 -61 -106
-61 -140 0 -53 4 -80 13 -80 5 0 4 -9 -2 -21 -13 -24 -3 -122 11 -114 4 3 11
-7 15 -22 4 -15 13 -35 21 -44 11 -14 12 -18 1 -21 -11 -4 -10 -8 1 -21 10
-12 10 -17 1 -17 -6 0 -1 -13 12 -29 13 -15 29 -26 36 -23 8 3 10 -1 6 -13 -5
-11 -1 -21 8 -26 9 -5 19 -25 22 -44 10 -51 21 -36 21 26 0 47 -3 55 -25 66
-28 14 -51 59 -24 49 19 -7 69 18 78 39 5 14 3 14 -24 0 l-30 -16 0 38 c0 21
-5 58 -11 83 -6 25 -12 50 -13 55 -1 6 -4 15 -7 20 -13 22 0 105 24 157 22 48
31 59 78 81 55 26 134 40 224 42 34 0 61 7 85 22 67 43 190 52 190 14 0 -6 7
-8 15 -4 10 3 15 0 13 -8 -2 -9 7 -15 27 -16 17 0 38 -2 48 -2 10 -1 17 -9 17
-21 0 -24 -13 -26 -34 -5 -8 8 -22 15 -30 15 -11 0 -7 -8 13 -28 23 -22 31
-41 37 -82 4 -39 14 -63 32 -82 22 -23 23 -28 9 -34 -9 -3 -20 -3 -26 0 -5 4
-12 2 -16 -4 -4 -6 -11 -8 -16 -5 -5 4 -9 1 -9 -4 0 -6 -8 -11 -19 -11 -28 0
-113 -48 -138 -78 -28 -33 -28 -44 -4 -66 17 -16 19 -16 24 4 4 17 13 20 54
20 65 0 100 -17 106 -53 3 -22 -1 -29 -19 -33 -34 -9 -99 1 -99 14 0 7 -4 11
-10 10 -18 -5 -15 -36 7 -63 58 -74 196 -72 253 3 16 21 20 41 18 92 -1 52 1
60 9 40 5 -14 8 -47 5 -75 -4 -42 -10 -54 -42 -82 l-38 -32 34 9 c19 6 44 10
56 10 21 0 23 -4 23 -60 0 -34 4 -60 10 -60 6 0 9 -13 8 -28 -1 -15 2 -34 7
-42 5 -9 5 -12 -1 -7 -5 5 -15 -28 -24 -79 -9 -48 -20 -89 -26 -91 -6 -2 -15
11 -21 29 l-10 33 -8 -28 c-5 -21 -12 -26 -25 -22 -14 5 -20 -1 -25 -26 -8
-36 -9 -108 -1 -116 9 -9 -16 -63 -26 -57 -7 4 -9 -10 -7 -40 3 -30 0 -45 -7
-42 -5 2 -19 -9 -29 -24 -17 -25 -26 -29 -78 -32 -32 -2 -61 0 -63 4 -2 3 -17
9 -34 13 -16 4 -32 15 -35 26 -7 21 -30 26 -39 7 -3 -7 -5 -4 -3 7 1 11 -2 20
-7 20 -5 0 -12 10 -17 23 -12 32 -38 27 -54 -10 -8 -18 -15 -26 -15 -18 0 12
-4 11 -15 -4 -13 -18 -13 -22 7 -40 13 -12 26 -21 29 -21 4 0 24 -13 45 -30
71 -57 137 -70 237 -45 36 9 51 9 62 0 8 -7 16 -7 19 -1 3 5 15 7 25 4 21 -5
35 -29 25 -44 -3 -5 0 -9 7 -9 6 0 23 -12 36 -26 19 -21 22 -29 11 -35 -9 -6
-9 -9 -1 -9 17 0 63 48 63 65 0 18 12 19 29 3 10 -11 11 -7 6 17 -4 17 -8 36
-11 43 -2 6 2 12 9 12 19 0 23 -239 4 -276 -8 -16 -17 -54 -21 -84 -4 -30 -14
-62 -22 -71 -13 -14 -13 -17 -1 -22 12 -4 12 -16 2 -71 -13 -69 -8 -83 15 -41
17 31 27 32 33 3 4 -22 4 -22 6 -2 1 21 31 43 31 24 0 -18 40 -11 41 8 0 15 1
14 8 -2 7 -18 8 -18 14 5 9 32 9 39 0 38 -35 -6 -69 46 -57 84 5 12 7 25 6 30
-7 24 34 157 48 157 11 0 27 -54 35 -120 4 -30 12 -62 17 -70 8 -13 9 -12 4 2
-2 9 6 61 20 115 39 155 37 175 -19 266 -27 42 -52 77 -56 77 -10 0 -25 75
-42 207 -11 83 -10 116 8 251 7 56 23 54 18 -3 -2 -27 1 -45 7 -45 7 0 6 -5
-1 -14 -9 -11 -9 -16 0 -22 9 -5 8 -10 -4 -19 -21 -15 -17 -142 4 -156 10 -6
10 -9 2 -9 -20 0 -15 -30 5 -31 10 0 12 -3 5 -6 -8 -2 -13 -22 -13 -44 0 -32
8 -48 38 -82 21 -23 48 -55 61 -71 20 -27 40 -35 214 -79 106 -27 219 -52 253
-56 56 -7 221 -54 304 -87 19 -7 54 -18 76 -24 53 -13 88 -41 119 -93 13 -23
47 -64 75 -92 27 -27 50 -56 50 -65 0 -8 7 -28 16 -45 28 -54 64 -149 80 -210
22 -87 85 -214 107 -215 9 0 17 -4 17 -9 0 -4 13 -22 30 -39 41 -44 44 -67 26
-195 -9 -61 -16 -141 -16 -177 1 -77 32 -254 49 -274 15 -17 59 -28 133 -30
37 -1 63 -7 76 -19 10 -9 23 -17 28 -17 5 0 31 -11 58 -25 27 -14 55 -25 62
-25 6 0 28 -19 48 -42 20 -24 50 -57 66 -74 17 -17 30 -38 30 -47 0 -9 10 -19
22 -23 l21 -6 -24 -13 c-21 -12 -25 -11 -31 3 -5 14 -7 14 -7 2 -1 -9 4 -21 9
-28 6 -6 7 -10 4 -7 -13 9 -44 -16 -44 -35 0 -11 -4 -20 -10 -20 -5 0 -10 -7
-10 -15 0 -15 -45 -65 -59 -65 -14 0 -18 -46 -6 -64 7 -9 24 -16 39 -16 24 0
26 -2 15 -22 -11 -20 -12 -21 -25 -4 -12 17 -14 17 -38 -1 -13 -10 -27 -26
-29 -35 -3 -10 -10 -18 -17 -18 -11 0 -5 74 8 95 4 5 7 19 8 30 1 11 3 27 5
35 3 10 -3 15 -16 15 -14 0 -27 -15 -44 -50 -13 -27 -28 -58 -33 -68 -5 -11
-3 -26 8 -42 12 -18 15 -38 11 -66 -7 -51 -10 -55 -36 -32 -16 13 -21 29 -21
63 0 42 -3 47 -31 57 -27 11 -30 10 -23 -5 4 -9 10 -44 14 -77 3 -33 20 -89
36 -125 45 -97 57 -130 50 -137 -3 -3 -14 0 -23 8 -10 8 -28 20 -40 26 -21 12
-23 11 -29 -13 -4 -17 -2 -29 7 -35 9 -5 9 -9 2 -9 -6 0 -32 -64 -58 -142 -37
-111 -47 -156 -46 -201 1 -42 -5 -74 -23 -115 -13 -31 -29 -95 -36 -142 -7
-47 -19 -103 -26 -125 -17 -51 -18 -76 -1 -69 23 9 280 -450 361 -646 11 -25
34 -78 53 -119 31 -69 98 -250 129 -351 l13 -45 -27 35 c-15 19 -35 48 -45 65
-24 41 -87 174 -87 184 0 4 -9 16 -19 25 -19 17 -20 17 -35 -6 -20 -31 -35
-101 -36 -166 0 -33 -7 -66 -20 -89 l-20 -38 0 53 c0 45 -3 54 -22 61 l-22 8
27 23 c31 27 37 70 10 70 -17 1 -17 1 0 14 9 7 17 16 17 20 0 4 7 14 15 23 27
27 12 38 -46 34 -60 -3 -60 -2 -4 28 l40 22 -60 -5 c-128 -10 -185 -27 -185
-53 0 -8 -12 -13 -32 -13 -50 0 -83 -11 -66 -22 18 -12 -17 -38 -51 -38 l-26
1 24 20 c15 12 21 23 15 27 -6 4 -16 16 -22 27 -11 19 -11 19 -12 -2 0 -18 -6
-23 -25 -23 -15 0 -25 6 -25 15 0 19 -36 39 -45 25 -4 -6 -11 -7 -17 -4 -6 4
-5 -3 2 -16 10 -18 14 -20 21 -9 6 10 9 10 9 2 0 -16 -48 -48 -58 -38 -4 4 -1
10 6 12 6 3 12 9 12 14 0 6 -5 7 -10 4 -13 -8 -13 11 1 60 7 22 14 34 16 27 3
-6 9 -10 14 -6 5 3 19 7 31 9 81 16 118 30 118 46 0 32 -120 42 -140 11 -10
-15 -11 -15 -5 3 4 11 11 35 15 53 10 41 8 40 49 47 19 3 38 8 43 11 12 8 -11
34 -25 29 -7 -3 -18 -1 -26 4 -27 17 72 260 107 261 6 0 12 5 12 10 0 13 42
13 77 -1 l28 -12 -24 -6 c-44 -12 -32 -27 31 -40 35 -7 73 -15 86 -18 12 -3
22 -1 22 4 0 12 -36 63 -72 104 -18 20 -72 26 -82 10 -3 -5 -15 -7 -26 -4 -11
3 -27 0 -35 -7 -12 -10 -13 -7 -5 21 5 17 11 33 13 35 7 7 53 7 85 0 26 -6 32
-5 32 9 0 9 -9 30 -21 46 -11 16 -18 36 -15 44 3 8 2 15 -3 15 -5 0 -12 11
-15 25 -4 14 -11 25 -16 25 -6 0 -10 7 -10 16 0 8 -4 13 -9 9 -5 -3 -6 -18 -2
-33 4 -15 4 -43 0 -62 -3 -19 -7 -26 -8 -14 -3 48 -86 104 -153 104 -25 0 -29
-3 -20 -12 17 -17 15 -84 -4 -102 -9 -10 -13 -24 -9 -36 10 -30 -18 -25 -53
10 -34 33 -67 43 -38 11 10 -11 19 -31 20 -45 0 -14 6 -26 11 -26 6 0 3 -5 -5
-10 -20 -13 -40 26 -42 84 -2 47 -13 50 -53 16 -25 -21 -120 -66 -159 -75 -29
-6 -29 -6 -7 -21 13 -10 21 -26 21 -45 0 -24 -4 -29 -26 -29 -14 0 -23 -4 -19
-10 4 -6 -5 -10 -20 -10 -14 0 -24 -3 -22 -7 6 -9 -60 -9 -69 0 -6 6 57 107
66 107 9 0 2 112 -11 193 l-11 67 -49 0 c-28 0 -49 -5 -49 -11 0 -5 -5 -7 -12
-3 -6 4 -16 0 -22 -8 -24 -33 -188 -83 -268 -82 -16 0 -28 -4 -28 -8 0 -4 -12
-8 -26 -8 -14 0 -23 -4 -19 -10 10 -16 -7 -12 -27 6 -14 14 -21 14 -32 4 -9
-7 -62 -14 -133 -17 -100 -5 -120 -3 -131 10 -8 9 -21 13 -30 10 -26 -9 -52
-35 -46 -44 3 -5 62 -6 131 -2 94 4 124 3 119 -5 -4 -7 -13 -12 -21 -12 -9 0
-12 -11 -10 -37 1 -21 0 -28 -2 -15 -4 21 -8 22 -121 23 -64 0 -136 2 -160 5
l-43 5 3 -33 c3 -32 4 -33 56 -36 31 -2 52 1 52 7 0 6 22 11 50 11 39 0 50 -3
50 -16 0 -13 10 -15 60 -12 l60 3 0 -38 c0 -62 -14 -78 -68 -77 -26 0 -54 0
-62 0 -17 0 -103 8 -167 16 -39 5 -43 8 -49 41 -8 43 1 140 15 157 6 7 23 11
40 8 16 -2 32 1 35 7 5 7 -4 11 -26 11 -48 0 -230 36 -323 64 -106 32 -118 34
-345 51 -107 8 -217 21 -245 29 -27 8 -82 17 -121 21 -81 8 -78 6 -128 63 -30
33 -36 45 -27 56 20 24 63 110 88 176 27 72 60 131 80 143 7 4 24 27 38 50 24
41 24 48 18 162 -5 111 -8 125 -38 180 -39 71 -85 212 -85 261 0 18 -3 34 -6
34 -18 0 -182 -153 -210 -196 -17 -25 -185 -158 -231 -183 -31 -16 -62 -6
-158 52 -118 71 -138 103 -191 299 -24 89 -44 184 -44 211 0 51 29 163 81 312
39 114 56 293 33 357 -20 58 -17 124 10 219 28 98 58 221 80 336 27 138 115
296 190 343 34 21 135 54 199 65 20 4 40 12 44 18 4 6 0 8 -11 4 -10 -4 -15
-3 -11 3 12 19 83 32 220 39 132 8 201 20 252 43 12 6 29 8 38 5 10 -5 18 1
24 17 5 12 22 28 38 34 41 15 123 40 160 47 18 4 35 10 38 15 9 15 -26 104
-53 133 -29 30 -42 34 -42 12 0 -9 -7 -18 -15 -21 -8 -4 -15 -12 -15 -19 0
-10 -9 -11 -38 -4 -32 8 -141 10 -362 9 -56 -1 -211 -24 -265 -40 -268 -79
-341 -103 -416 -139 -36 -17 -70 -31 -76 -31 -19 0 -42 -36 -113 -175 -84
-163 -83 -144 1 30 55 116 97 175 125 175 7 0 41 13 76 29 139 64 416 143 569
162 48 6 150 9 226 7 l138 -3 23 27 c12 14 35 29 51 33 43 9 57 44 36 89 -10
20 -22 36 -27 36 -5 0 -6 5 -3 10 3 6 -1 13 -9 16 -9 3 -16 17 -16 30 0 13 -5
24 -10 24 -6 0 -18 16 -27 35 -9 19 -21 31 -26 28 -6 -3 -7 -1 -3 5 4 7 0 22
-8 34 -9 12 -16 33 -16 46 0 20 -3 22 -15 12 -30 -25 -95 20 -95 66 0 29 -39
133 -78 210 -12 23 -20 50 -20 60 1 10 -8 46 -19 79 -12 33 -31 92 -43 130
-12 39 -25 75 -29 80 -9 14 -7 116 3 140 5 14 5 16 -2 7 -7 -11 -10 -11 -15 1
-3 9 1 21 9 27 8 7 14 28 14 46 0 28 -4 34 -22 35 -22 0 -22 1 -3 8 11 5 21
13 21 20 1 6 2 12 4 14 8 10 6 37 -3 37 -7 0 -5 5 3 10 11 7 11 10 2 10 -7 0
-11 4 -8 9 3 5 -1 11 -9 15 -18 7 -20 52 -2 59 7 3 5 6 -5 6 -19 1 -26 21 -7
21 5 0 7 5 3 12 -5 8 5 9 39 5 37 -5 45 -4 41 7 -3 8 -15 17 -27 21 -19 6 -20
8 -4 12 20 5 23 23 5 23 -9 0 -8 4 2 10 12 8 11 10 -7 10 -42 0 -24 19 25 26
59 8 66 12 51 30 -10 12 -9 13 5 8 11 -4 16 -1 16 10 0 10 7 16 17 14 11 -2
19 5 21 17 3 11 11 24 19 30 13 10 11 14 -11 28 -30 20 -32 38 -11 71 16 24
16 24 -27 22 -26 0 -50 -8 -61 -19 -13 -13 -32 -17 -75 -16 -31 1 -77 -3 -101
-10 -40 -11 -48 -10 -72 9 -16 11 -44 20 -64 20 -19 0 -77 6 -128 14 -50 8
-99 14 -107 14 -8 0 -46 5 -85 11 -61 9 -71 9 -80 -6 -5 -8 -32 -47 -60 -84
-27 -38 -58 -80 -68 -94 -28 -39 -62 -32 -147 28 -42 30 -97 66 -123 81 -48
28 -75 55 -44 43 10 -3 17 -2 17 3 0 6 8 10 18 10 9 0 -6 14 -35 30 -59 34
-87 78 -73 115 10 27 38 38 74 29 13 -3 30 -3 37 1 16 10 -27 34 -62 35 -14 0
-34 7 -45 16 -18 14 -18 15 6 8 27 -7 28 -7 48 -5 31 3 -5 50 -39 51 -9 0 -22
6 -28 14 -15 18 -33 15 -55 -7 -19 -18 -27 -21 -25 -9 3 19 -2 23 -16 12 -19
-16 -19 -30 0 -30 8 0 15 -5 15 -11 0 -6 -8 -9 -17 -7 -14 3 -18 14 -19 47 0
35 -5 46 -20 51 -16 6 -19 17 -19 73 l0 67 42 6 c23 3 57 1 74 -5 41 -14 49
-14 49 2 0 23 37 49 67 46 25 -2 48 2 106 18 22 6 12 23 -14 23 -10 0 -19 4
-19 9 0 11 -39 26 -57 23 -6 -2 -14 2 -18 8 -3 6 0 7 10 4 11 -5 14 -2 9 9 -5
14 -41 16 -285 17 -245 0 -279 -2 -279 -15 0 -9 -11 -20 -25 -27 -13 -6 -22
-15 -18 -20 6 -11 -36 14 -76 44 -13 10 -37 18 -52 18 l-29 0 0 -3495z m4676
3433 c3 -4 -2 -18 -11 -32 -15 -23 -15 -26 -2 -32 9 -3 25 -1 36 5 26 15 42
-8 17 -23 -10 -6 -38 -24 -62 -40 -36 -23 -51 -27 -79 -22 -40 8 -56 31 -44
64 8 22 16 26 57 24 17 -1 22 4 22 23 0 33 44 55 66 33z m-1636 -22 c0 -19 40
-32 50 -16 6 9 13 9 29 1 11 -7 21 -16 21 -21 0 -6 6 -10 14 -10 24 0 27 -29
5 -51 -25 -25 -82 -23 -142 6 -39 18 -48 46 -27 86 12 22 50 26 50 5z m703 8
c8 -8 -30 -44 -48 -44 -9 0 -15 9 -15 25 0 21 5 25 28 25 16 0 31 -3 35 -6z
m1957 -46 c0 -10 -4 -18 -8 -18 -5 0 -9 14 -9 30 0 20 3 26 9 18 4 -7 8 -21 8
-30z m-3663 0 c-3 -7 -5 -2 -5 12 0 14 2 19 5 13 2 -7 2 -19 0 -25z m933 -19
c0 -18 -2 -19 -15 -9 -8 7 -15 16 -15 21 0 5 7 9 15 9 9 0 15 -9 15 -21z
m2675 -19 c3 -5 -1 -10 -9 -10 -9 0 -16 5 -16 10 0 6 4 10 9 10 6 0 13 -4 16
-10z m-2085 -9 c0 -5 -5 -13 -11 -17 -8 -5 -7 -9 1 -14 20 -13 3 -40 -25 -40
-23 0 -24 2 -13 21 9 15 10 23 2 26 -6 2 -19 9 -29 16 -15 11 -11 13 29 16 25
1 46 -3 46 -8z m-1380 -31 c0 -5 -5 -10 -11 -10 -5 0 -7 5 -4 10 3 6 8 10 11
10 2 0 4 -4 4 -10z m1693 -5 c-3 -9 -8 -14 -10 -11 -3 3 -2 9 2 15 9 16 15 13
8 -4z m1101 -27 c38 -16 44 -47 15 -71 -13 -11 -23 -24 -21 -28 4 -17 -9 -9
-43 26 -33 32 -44 63 -28 78 10 11 49 8 77 -5z m-2478 -17 c7 6 19 7 26 3 7
-5 21 -7 31 -6 9 2 17 -1 17 -6 0 -12 -24 -22 -50 -22 -10 0 -20 -7 -24 -15
-8 -22 -26 -19 -26 4 0 11 -5 23 -10 26 -6 4 -7 11 -4 17 4 6 10 6 17 -1 7 -7
14 -7 23 0z m624 -61 c11 -7 12 -12 3 -21 -13 -13 -33 -4 -33 17 0 16 9 18 30
4z m661 -9 c23 -19 23 -21 9 -48 -12 -21 -24 -29 -50 -31 -19 -2 -46 -12 -60
-22 -20 -14 -30 -16 -38 -8 -7 7 -15 8 -19 3 -5 -4 -2 -10 5 -12 18 -7 15 -37
-5 -55 -10 -8 -43 -18 -74 -22 -48 -5 -60 -3 -83 15 -14 11 -26 26 -26 33 0
26 37 46 91 50 51 4 54 6 64 38 15 49 23 58 53 58 15 0 34 5 42 10 24 16 66
11 91 -9z m-1471 -48 c0 -9 -6 -7 -20 4 -11 10 -20 21 -20 25 0 5 9 3 20 -4
11 -7 20 -18 20 -25z m2880 -2 c13 -25 13 -51 -1 -51 -5 0 -7 5 -4 10 4 6 -1
22 -9 35 -9 14 -12 25 -7 25 6 0 15 -9 21 -19z m-76 -6 c-4 -8 -10 -15 -15
-15 -5 0 -9 7 -9 15 0 8 7 15 15 15 9 0 12 -6 9 -15z m-1121 -48 c11 -11 22
-38 24 -61 4 -37 2 -42 -26 -58 -17 -9 -31 -13 -31 -8 0 5 -10 10 -21 12 -28
4 -53 67 -45 111 6 31 8 33 42 29 20 -3 46 -14 57 -25z m-1146 3 c-3 -13 0
-20 10 -20 8 0 11 -4 8 -10 -3 -5 -15 -10 -26 -10 -10 0 -19 5 -19 10 0 6 -6
10 -14 10 -8 0 -16 6 -19 14 -4 11 3 16 26 19 18 2 34 5 36 5 2 1 1 -7 -2 -18z
m387 -24 c-7 -17 25 -49 42 -42 8 3 14 1 14 -4 0 -11 -8 -16 -42 -24 -21 -5
-28 -2 -33 14 -4 11 -11 18 -16 15 -5 -4 -9 3 -9 15 0 17 16 30 47 39 1 1 0
-5 -3 -13z m634 -68 c13 -13 -1 -48 -20 -48 -7 0 -6 5 2 15 10 12 10 18 0 30
-15 18 1 20 18 3z m-515 -28 c3 -11 1 -20 -4 -20 -5 0 -9 9 -9 20 0 11 2 20 4
20 2 0 6 -9 9 -20z m111 14 c9 -3 16 -17 16 -30 0 -26 -7 -29 -29 -15 -11 7
-10 11 5 21 16 10 16 11 2 6 -12 -3 -18 0 -18 9 0 17 2 17 24 9z m-184 -44 c0
-5 -9 -10 -20 -10 -19 0 -20 -12 -6 -70 0 -3 -3 -7 -9 -10 -5 -3 -11 10 -13
28 -2 20 -9 32 -18 32 -29 0 -14 29 19 33 17 2 35 5 40 5 4 1 7 -2 7 -8z m120
0 c0 -5 -2 -10 -4 -10 -3 0 -8 5 -11 10 -3 6 -1 10 4 10 6 0 11 -4 11 -10z
m1915 -96 c19 -5 45 -46 45 -68 -1 -6 -12 -24 -25 -41 -20 -24 -25 -27 -25
-11 0 16 -2 17 -17 5 -10 -7 -15 -10 -11 -5 3 4 -10 22 -30 40 -36 33 -36 34
-19 60 17 26 40 32 82 20z m-1291 -112 c45 -26 42 -39 -11 -55 -40 -13 -51
-13 -68 -2 -11 7 -19 17 -18 22 2 13 -40 14 -48 1 -4 -6 -12 -7 -20 -2 -13 8
-17 10 -37 13 -6 1 -12 41 -6 41 14 0 34 -15 34 -26 0 -8 5 -14 10 -14 6 0 10
7 10 15 0 15 16 19 53 16 9 -1 17 3 17 9 0 15 43 5 84 -18z m568 -19 c9 -8 22
-12 27 -8 10 5 15 -7 12 -27 -1 -8 14 -12 37 -9 21 3 13 -38 -11 -54 -13 -8
-47 -19 -76 -25 -92 -17 -142 30 -106 99 26 50 75 60 117 24z m768 23 c0 -3
-4 -8 -10 -11 -5 -3 -10 -1 -10 4 0 6 5 11 10 11 6 0 10 -2 10 -4z m-1580 -20
c0 -12 -29 -44 -31 -35 -8 41 -7 45 11 46 11 1 20 -4 20 -11z m-180 -10 c0 -3
-4 -8 -10 -11 -5 -3 -10 -1 -10 4 0 6 5 11 10 11 6 0 10 -2 10 -4z m-682 -211
c-3 -3 -9 2 -12 12 -6 14 -5 15 5 6 7 -7 10 -15 7 -18z m-1622 -408 c13 -25
13 -28 -3 -34 -9 -4 -19 -1 -21 5 -2 7 -10 12 -18 12 -16 0 -16 1 -19 51 l-2
36 24 -21 c14 -11 31 -33 39 -49z m2289 3 c4 -13 16 -20 33 -21 15 0 21 -3 14
-6 -23 -9 -59 6 -65 27 -7 26 10 26 18 0z m-730 0 c-3 -5 -11 -10 -16 -10 -6
0 -7 5 -4 10 3 6 11 10 16 10 6 0 7 -4 4 -10z m-210 -10 c-3 -5 -11 -10 -16
-10 -6 0 -7 5 -4 10 3 6 11 10 16 10 6 0 7 -4 4 -10z m-74 -45 c-41 -37 -57
-45 -43 -19 9 16 61 54 75 54 4 0 -10 -16 -32 -35z m172 -90 c3 -16 0 -24 -7
-22 -12 4 -18 47 -6 47 4 0 10 -11 13 -25z m1339 12 c40 -31 18 -87 -35 -87
-53 0 -88 55 -55 88 16 16 68 15 90 -1z m148 -5 c0 -4 -5 -13 -11 -19 -13 -13
39 -52 61 -45 12 3 12 2 3 -8 -28 -30 -95 25 -80 64 7 16 27 22 27 8z m-1420
-12 c0 -5 -4 -10 -10 -10 -5 0 -10 5 -10 10 0 6 5 10 10 10 6 0 10 -4 10 -10z
m-1389 -47 c15 -29 52 -69 68 -74 18 -7 91 -112 91 -131 0 -10 5 -18 10 -18
17 0 87 -73 95 -97 3 -13 10 -23 15 -23 5 0 18 -19 28 -42 21 -45 117 -151
165 -181 38 -24 36 -58 -4 -76 -42 -18 -79 -5 -98 34 -8 17 -17 35 -20 41 -3
6 -42 53 -86 103 -44 50 -94 119 -112 152 -33 65 -67 109 -82 109 -11 0 -71
107 -71 127 0 8 -9 31 -20 53 -11 22 -20 44 -20 49 0 18 27 1 41 -26z m1669
-16 c0 -14 -33 -66 -40 -62 -16 10 -17 54 -1 58 22 6 41 8 41 4z m1000 -73 c0
-4 -7 -12 -17 -19 -18 -13 -12 -45 9 -45 9 0 9 3 0 12 -7 7 -12 16 -12 21 0
11 57 2 74 -12 7 -6 16 -8 19 -4 4 3 7 1 7 -5 0 -19 -30 -42 -55 -42 -23 0
-65 34 -65 52 0 13 24 48 32 48 5 0 8 -3 8 -6z m50 -16 c0 -6 -6 -5 -15 2 -8
7 -15 14 -15 16 0 2 7 1 15 -2 8 -4 15 -11 15 -16z m1680 -615 c-1 -24 -2 -26
-11 -10 -5 9 -7 22 -4 27 10 17 15 11 15 -17z m-1242 -563 c23 0 32 -9 56 -56
28 -53 30 -65 32 -187 2 -71 6 -132 9 -135 15 -16 23 31 24 138 1 98 7 152 23
188 2 4 15 6 31 4 15 -2 27 2 27 7 0 25 20 9 21 -16 0 -25 3 -23 24 21 32 63
33 64 41 30 4 -16 13 -35 21 -42 16 -16 12 -34 -34 -167 -36 -102 -40 -129
-28 -179 4 -15 4 -31 -1 -35 -13 -9 -31 -39 -53 -86 -18 -39 -62 -72 -82 -60
-5 4 -12 24 -15 46 -6 37 -24 56 -24 25 0 -8 -6 -16 -12 -19 -18 -6 -69 12
-93 33 -11 10 -29 21 -41 24 -33 10 -60 47 -74 101 -7 28 -16 55 -20 60 -12
17 -19 55 -9 49 11 -6 4 30 -15 86 -14 43 -13 65 5 108 9 22 20 32 35 32 23 0
62 -40 81 -82 7 -16 19 -28 27 -28 12 0 13 6 6 28 -8 24 -8 47 -1 117 2 11 5
15 8 8 2 -7 17 -13 31 -13z m1235 -376 c-4 -12 -8 -13 -14 -3 -9 15 -2 32 11
24 5 -3 6 -13 3 -21z m-863 -16 c0 -9 3 -9 12 0 17 17 48 15 48 -4 0 -9 9 -29
21 -45 l21 -30 -32 -127 c-18 -70 -34 -141 -37 -159 -3 -17 -14 -41 -26 -54
-19 -21 -21 -21 -34 -3 -16 21 -18 137 -3 165 8 14 7 28 -6 54 -17 38 -15 100
8 178 11 35 28 51 28 25z m-125 -188 c11 -17 9 -70 -3 -82 -21 -21 -62 7 -62
41 0 39 48 69 65 41z m990 -38 c-6 -16 -7 -16 -17 2 -8 14 -7 21 3 27 17 10
24 -4 14 -29z m-1144 -63 c10 -11 15 -27 12 -35 -5 -13 -8 -12 -24 2 -18 16
-27 54 -13 54 4 0 15 -9 25 -21z m20 -103 c5 -6 9 -20 9 -32 0 -13 5 -26 10
-29 6 -3 10 -14 10 -24 0 -16 -9 -19 -70 -20 -65 -1 -70 1 -70 20 0 35 31 77
62 83 20 4 28 12 29 28 1 21 2 21 6 3 3 -11 9 -24 14 -29z m289 -217 c0 -10
-4 -19 -9 -19 -5 0 -12 -10 -16 -22 -7 -21 -8 -20 -12 10 -3 19 -2 40 1 48 7
19 36 6 36 -17z m-249 -110 c-9 -23 -10 -22 -10 11 -1 23 2 31 9 24 7 -7 7
-19 1 -35z m246 9 c-3 -8 -6 -5 -6 6 -1 11 2 17 5 13 3 -3 4 -12 1 -19z
m-4024 -305 c-8 -65 -13 -67 -13 -5 0 29 4 52 10 52 6 0 7 -19 3 -47z m-16
-120 c-3 -10 -5 -4 -5 12 0 17 2 24 5 18 2 -7 2 -21 0 -30z m4244 -19 c20 -21
21 -27 9 -34 -12 -7 -12 -18 -2 -70 7 -34 11 -64 8 -67 -7 -7 -36 23 -36 36 0
6 -14 11 -31 11 -31 0 -31 1 -25 38 4 20 9 56 12 78 5 34 9 41 24 37 10 -3 29
-16 41 -29z m-4737 -88 c-6 -15 -44 -29 -54 -20 -7 8 40 45 51 39 4 -3 6 -12
3 -19z m4563 -18 c-3 -7 -5 -2 -5 12 0 14 2 19 5 13 2 -7 2 -19 0 -25z m320
-20 c-3 -8 -6 -5 -6 6 -1 11 2 17 5 13 3 -3 4 -12 1 -19z m-267 -304 c-17 -43
-36 -83 -41 -88 -18 -20 -8 13 26 85 19 41 36 85 36 99 2 21 2 22 6 4 2 -12
-10 -57 -27 -100z m-149 53 c-10 -9 -11 -8 -5 6 3 10 9 15 12 12 3 -3 0 -11
-7 -18z m10 -161 c-19 -18 -21 -19 -21 -3 0 10 8 30 18 45 l17 26 3 -23 c2
-14 -5 -32 -17 -45z m259 43 c0 -26 -86 -139 -106 -139 -8 0 -14 2 -14 5 0 17
32 64 54 80 14 11 31 32 37 47 13 33 29 37 29 7z m-177 -59 c-6 -22 -23 -38
-23 -21 0 17 12 41 20 41 5 0 6 -9 3 -20z m-4096 -52 c-3 -8 -6 -5 -6 6 -1 11
2 17 5 13 3 -3 4 -12 1 -19z m4333 -21 c0 -2 -12 -14 -27 -28 l-28 -24 24 28
c23 25 31 32 31 24z m-60 -65 c0 -5 -9 -17 -20 -27 -11 -10 -20 -13 -20 -7 0
7 5 12 10 12 6 0 10 7 10 15 0 8 5 15 10 15 6 0 10 -4 10 -8z m-4273 -94 c-3
-8 -6 -5 -6 6 -1 11 2 17 5 13 3 -3 4 -12 1 -19z m0 -115 c-3 -10 -5 -2 -5 17
0 19 2 27 5 18 2 -10 2 -26 0 -35z m0 -85 c-3 -8 -6 -5 -6 6 -1 11 2 17 5 13
3 -3 4 -12 1 -19z m0 -40 c-3 -8 -6 -5 -6 6 -1 11 2 17 5 13 3 -3 4 -12 1 -19z
m0 -110 c-3 -8 -6 -5 -6 6 -1 11 2 17 5 13 3 -3 4 -12 1 -19z m0 -180 c-3 -8
-6 -5 -6 6 -1 11 2 17 5 13 3 -3 4 -12 1 -19z m4448 -196 c-6 -22 -41 -39 -53
-27 -4 4 3 15 16 25 12 10 22 24 22 31 0 9 3 10 11 2 6 -6 8 -20 4 -31z
m-2031 -23 c-27 -11 -34 -10 -34 0 0 11 31 20 44 13 5 -3 1 -9 -10 -13z m-922
-13 c14 -21 8 -23 -34 -13 -66 15 -68 16 -68 25 0 13 93 2 102 -12z m413 4
l20 -9 -20 1 c-11 0 -31 4 -45 8 l-25 8 25 0 c14 0 34 -3 45 -8z m66 -18 c-13
-2 -27 0 -32 5 -6 6 3 7 23 4 28 -4 29 -6 9 -9z m1247 -164 c15 -24 21 -52 22
-103 2 -107 1 -115 -15 -115 -17 0 -145 124 -145 140 0 7 12 22 28 35 15 13
41 35 57 49 17 14 31 26 32 26 1 0 10 -15 21 -32z m-293 -49 c-4 -6 2 -13 14
-16 12 -3 21 -13 21 -25 0 -14 -5 -18 -14 -15 -11 4 -13 1 -9 -10 5 -12 3 -13
-13 -5 -19 11 -58 52 -52 56 4 3 52 24 56 25 2 1 0 -4 -3 -10z m-46 -63 c7 -8
11 -29 9 -47 -3 -26 -10 -34 -33 -40 -32 -9 -60 2 -75 31 -8 16 -6 21 12 32
13 7 29 11 36 10 6 -2 12 4 12 13 0 19 24 20 39 1z m461 -62 c0 -14 -4 -23
-10 -19 -5 3 -10 15 -10 26 0 10 5 19 10 19 6 0 10 -12 10 -26z m1050 -123 c0
-14 -48 -42 -55 -32 -3 5 5 17 17 25 25 18 38 20 38 7z m440 -81 c9 -17 6 -25
-15 -46 -20 -20 -23 -29 -14 -40 15 -18 4 -44 -19 -44 -28 0 -29 103 -2 130
25 25 37 25 50 0z m-1030 -160 c0 -5 -6 -10 -12 -11 -7 0 -38 -13 -68 -29 -95
-49 -143 -70 -148 -65 -7 7 40 44 66 51 12 3 22 9 22 13 0 5 19 14 43 21 23 7
46 17 52 22 13 11 45 10 45 -2z m-2890 -160 c0 -47 24 -192 66 -395 93 -447
137 -685 154 -825 6 -47 23 -131 39 -186 32 -113 31 -156 -3 -149 -11 2 -37 6
-57 10 -21 3 -42 12 -49 20 -18 22 -70 18 -96 -6 -20 -19 -27 -20 -77 -9 -70
14 -85 35 -81 112 1 31 7 65 13 77 9 16 9 21 -1 21 -16 0 -15 114 1 134 20 24
-29 46 -100 45 -34 -1 -64 3 -68 8 -8 13 -53 24 -45 11 4 -6 -4 -8 -17 -6 -22
3 -24 7 -21 46 3 32 0 42 -12 42 -8 0 -18 -4 -21 -10 -9 -14 -45 11 -45 32 0
16 19 24 45 18 6 -1 49 -4 97 -7 89 -5 138 0 138 16 0 11 -41 22 -53 14 -18
-11 -155 -5 -193 7 -74 25 -180 -20 -141 -59 8 -8 1 -11 -26 -11 -32 0 -37 3
-37 24 0 13 -7 29 -15 36 -8 7 -15 19 -15 27 0 12 7 14 30 10 25 -5 30 -3 30
12 0 29 -25 44 -60 36 -24 -5 -35 -3 -45 12 -16 21 -20 83 -5 83 6 0 10 -5 10
-12 0 -9 3 -9 12 0 7 7 20 12 30 12 14 0 18 8 18 39 0 35 3 39 31 45 17 3 84
6 149 6 96 0 119 3 124 15 4 11 -1 15 -19 15 -14 0 -25 4 -25 8 0 5 -25 7 -55
4 -50 -4 -71 0 -140 28 -11 5 -28 11 -37 14 -11 3 -15 11 -11 22 3 9 0 20 -8
25 -12 7 -12 9 1 9 11 0 10 3 -4 11 -12 8 -20 8 -25 1 -6 -10 -54 -16 -97 -13
-11 0 -26 11 -33 24 -6 12 -25 31 -41 42 -17 11 -30 25 -30 31 0 27 -53 55
-125 66 -62 10 -75 15 -75 30 0 15 9 18 60 18 57 0 60 1 60 24 0 34 -23 49
-78 50 -26 1 -81 3 -122 5 l-75 4 60 7 60 7 -68 1 c-39 1 -81 9 -99 18 -24 13
-35 13 -58 4 -33 -14 -50 -7 -50 20 0 10 -6 20 -12 23 -7 2 8 7 35 11 37 6 47
11 47 27 0 10 -4 19 -10 19 -5 0 -10 5 -10 10 0 6 10 10 23 10 13 0 44 7 70
16 39 13 65 14 164 6 68 -5 125 -6 135 -1 9 5 37 9 61 9 37 0 48 4 62 26 15
23 15 27 1 43 -9 10 -16 29 -16 43 0 26 1 26 108 32 59 4 228 9 376 11 147 2
271 6 274 10 11 11 22 -21 22 -65z m2437 32 c9 -6 3 -14 -19 -26 -17 -11 -29
-15 -26 -10 3 5 8 17 11 27 7 19 15 21 34 9z m207 -17 c-9 -14 -19 -25 -23
-25 -4 0 -18 -10 -31 -22 l-23 -22 -19 24 c-14 17 -16 26 -7 36 6 8 18 14 25
14 8 0 14 5 14 10 0 6 18 10 40 10 l40 0 -16 -25z m-179 -142 c22 -15 73 -17
94 -4 11 7 21 3 37 -14 12 -13 33 -26 47 -27 34 -5 55 -25 79 -75 11 -24 34
-53 50 -64 16 -12 38 -41 48 -64 12 -29 34 -54 64 -74 40 -28 45 -35 36 -52
-6 -11 -16 -16 -22 -13 -20 13 -88 22 -94 13 -12 -19 -61 -7 -101 25 -97 77
-115 106 -65 106 l27 0 -25 20 c-13 10 -27 15 -30 11 -13 -19 -55 -19 -87 0
-18 12 -45 22 -58 24 -31 3 -27 -3 -53 68 -21 55 -29 127 -16 139 7 8 45 -2
69 -19z m-3770 -213 c4 -6 19 -10 36 -10 16 0 29 -4 29 -9 0 -19 32 -41 61
-41 28 0 68 -15 79 -30 3 -3 21 -16 41 -28 21 -13 39 -32 41 -46 4 -22 3 -23
-25 -15 -16 4 -35 13 -43 20 -14 11 -80 8 -117 -7 -11 -4 -17 -1 -17 7 0 8
-12 28 -27 44 l-26 30 -136 0 c-75 0 -154 -2 -176 -4 -50 -4 -115 18 -115 40
0 18 28 29 75 29 17 0 47 6 68 14 45 15 243 20 252 6z m4261 -15 c-1 -20 -6
-25 -28 -25 -23 0 -28 4 -28 25 0 21 5 25 29 25 25 0 29 -4 27 -25z m-426 -67
c30 -20 70 -51 89 -68 19 -18 53 -40 76 -50 88 -38 93 -80 8 -80 l-45 0 44
-40 c23 -22 54 -40 68 -41 23 -1 23 -2 -5 -8 -21 -5 -40 -1 -65 13 -19 10 -47
25 -62 33 -14 7 -28 19 -31 26 -3 7 -30 25 -61 41 -31 16 -61 36 -66 45 -9 15
-9 15 -10 -1 0 -21 32 -60 141 -173 125 -128 169 -177 169 -187 0 -4 7 -8 15
-8 8 0 15 -4 15 -8 0 -9 44 -60 138 -161 28 -31 52 -60 52 -66 0 -5 12 -19 27
-31 27 -21 27 -21 6 -33 -26 -13 -53 -5 -53 18 -1 17 -81 71 -105 71 -10 0
-14 11 -13 35 1 27 -5 39 -26 56 -15 12 -25 24 -22 27 7 6 -81 113 -104 126
-8 5 -51 45 -96 88 -44 43 -88 78 -97 78 -23 0 -21 -7 8 -42 14 -16 25 -36 25
-43 0 -7 9 -24 20 -37 11 -12 30 -37 42 -55 13 -18 38 -53 57 -79 19 -26 35
-58 37 -71 1 -13 15 -36 31 -52 40 -40 86 -105 76 -108 -5 -2 16 -29 47 -61
30 -32 62 -72 70 -88 8 -16 28 -41 44 -56 21 -20 27 -33 22 -51 -5 -20 0 -27
29 -43 19 -10 43 -30 54 -45 18 -25 19 -28 4 -40 -23 -20 -125 -16 -157 5 -30
19 -35 66 -11 86 20 17 19 30 -2 30 -10 0 -44 15 -76 34 -59 34 -157 144 -157
178 0 9 -19 36 -43 60 -24 24 -49 59 -57 78 -7 19 -21 45 -31 58 -9 12 -20 46
-24 75 -4 28 -15 93 -25 142 -10 50 -16 104 -13 121 3 17 -6 82 -20 145 -25
117 -27 219 -3 201 6 -5 36 -25 66 -44z m547 -34 c13 -23 38 -49 58 -60 19
-10 35 -21 35 -25 0 -3 11 -19 25 -35 14 -16 25 -33 25 -39 0 -5 3 -19 6 -30
4 -17 0 -21 -21 -23 -34 -2 -57 10 -113 62 l-45 41 5 -42 c5 -36 2 -46 -19
-67 -14 -14 -22 -30 -18 -36 8 -13 -3 -50 -15 -50 -5 0 -10 7 -12 17 -2 10
-15 17 -33 19 -16 2 -55 7 -85 12 -53 9 -55 13 -8 16 12 0 23 7 26 14 5 15
-17 72 -28 72 -4 0 -12 18 -18 41 -10 39 -10 41 11 34 12 -4 37 -9 55 -12 29
-5 32 -9 32 -39 0 -18 9 -48 20 -66 11 -19 20 -26 20 -17 0 9 9 24 20 34 26
24 27 65 1 65 -10 0 -24 6 -30 14 -10 11 -7 16 14 23 l25 8 -30 35 c-16 19
-30 38 -30 42 0 14 55 38 80 35 17 -1 31 -14 47 -43z m-4282 -95 c33 -11 73
-19 89 -16 19 3 46 -4 72 -18 35 -18 39 -24 25 -32 -9 -6 -13 -14 -9 -18 7 -7
155 -23 226 -25 12 0 22 -5 22 -11 0 -6 14 -27 30 -46 17 -18 30 -37 30 -42 0
-19 -114 -28 -126 -10 -5 8 -9 7 -14 -1 -11 -18 -200 -26 -248 -12 -20 6 -76
14 -124 18 -96 6 -120 23 -35 25 41 1 47 3 27 9 -22 7 -20 8 15 10 l40 2 -45
15 c-48 15 -134 19 -292 13 -94 -4 -98 -5 -98 -27 0 -16 6 -23 20 -23 20 0 20
-1 4 -25 -9 -14 -23 -25 -30 -25 -8 0 -20 11 -26 25 -6 14 -15 25 -19 25 -5 0
-11 17 -15 38 -4 20 -13 46 -20 57 -19 26 -18 35 5 35 10 0 24 6 30 14 9 10
52 16 162 21 124 6 154 11 172 26 29 24 60 24 132 -2z m2458 -131 c9 -66 80
-268 147 -423 81 -184 180 -441 180 -466 0 -4 -17 -3 -37 1 -58 13 -277 23
-313 15 -27 -6 -31 -10 -26 -31 4 -13 3 -24 -2 -24 -15 0 -29 114 -22 185 4
45 2 93 -7 135 -7 36 -13 93 -13 126 0 67 24 139 42 128 7 -5 8 -3 3 6 -9 14
-9 53 1 240 6 115 14 150 34 150 4 0 10 -19 13 -42z m-2015 -165 l-3 -48 -45
4 c-25 3 -57 5 -71 5 -34 1 -59 23 -59 52 0 24 6 25 143 32 l38 2 -3 -47z
m3726 12 c-6 -16 39 -62 221 -230 199 -182 542 -531 532 -541 -15 -16 -94 51
-287 241 -222 220 -280 274 -415 385 -136 113 -154 130 -152 151 1 21 14 24
51 9 21 -8 26 -7 26 6 0 13 3 14 14 4 8 -6 12 -18 10 -25z m455 -64 c21 -30
28 -61 13 -61 -5 0 -19 9 -32 20 -12 11 -31 22 -41 25 -11 4 -19 15 -19 26 0
32 54 25 79 -10z m-4359 -6 c0 -16 -9 -19 -35 -9 -13 5 -14 8 -3 15 20 13 38
11 38 -6z m103 -82 c9 -3 17 -9 17 -14 0 -5 9 -9 20 -9 11 0 20 -4 20 -10 0
-5 9 -10 20 -10 18 0 30 -30 13 -30 -5 0 -39 -5 -78 -11 -131 -19 -425 -10
-370 12 16 6 14 8 -13 8 -18 1 -31 -3 -27 -8 3 -5 -4 -13 -16 -16 -34 -11
-183 -23 -192 -16 -4 4 -1 16 7 26 21 30 127 47 201 34 160 -30 175 -29 175 2
0 12 7 19 20 19 11 0 20 5 20 10 0 6 7 10 15 10 8 0 15 -4 15 -10 0 -5 5 -10
10 -10 6 0 10 8 10 18 0 34 19 41 69 25 25 -8 54 -17 64 -20z m177 32 c0 -3
-7 -17 -16 -30 -20 -31 -42 -32 -53 -2 -7 18 -4 23 13 29 27 8 56 9 56 3z
m-168 -147 c-23 -8 -39 -8 -55 0 -19 9 -13 11 33 10 53 0 54 -1 22 -10z m3650
-30 c-6 -6 -7 0 -4 19 5 21 7 23 10 9 2 -10 0 -22 -6 -28z m-3547 16 c13 -5 8
-10 -20 -19 -27 -10 -45 -10 -73 -2 l-37 11 30 7 c41 9 80 10 100 3z m202 -24
c14 -17 35 -30 47 -30 13 0 31 -9 40 -19 17 -19 17 -20 -3 -31 -12 -6 -45 -10
-74 -8 -43 2 -54 7 -62 26 -5 12 -13 22 -17 22 -11 0 -68 51 -68 61 0 5 25 9
56 9 49 0 58 -3 81 -30z m-264 -97 c-7 -2 -19 -2 -25 0 -7 3 -2 5 12 5 14 0
19 -2 13 -5z m487 -3 c0 -5 -5 -10 -11 -10 -5 0 -7 5 -4 10 3 6 8 10 11 10 2
0 4 -4 4 -10z m2970 -112 c0 -15 -38 -8 -44 8 -10 26 4 37 25 18 10 -9 19 -21
19 -26z m-3910 18 c0 -11 -19 -15 -25 -6 -3 5 1 10 9 10 9 0 16 -2 16 -4z
m600 -70 c0 -8 -14 -16 -37 -19 -47 -5 -62 2 -38 20 25 17 75 17 75 -1z m260
-76 c0 -5 -10 -10 -22 -10 -19 0 -20 2 -8 10 19 13 30 13 30 0z m3189 -56 c15
-33 7 -44 -30 -44 -22 0 -32 6 -38 23 -12 32 -3 47 28 47 20 0 31 -7 40 -26z
m-3029 -4 c0 -5 -10 -10 -22 -9 -22 0 -22 1 -3 9 11 5 21 9 23 9 1 1 2 -3 2
-9z"/>
<path d="M4605 8350 c-3 -5 -1 -10 4 -10 6 0 11 5 11 10 0 6 -2 10 -4 10 -3 0
-8 -4 -11 -10z"/>
<path d="M1155 1617 c-17 -13 -17 -14 5 -20 33 -8 80 3 80 19 0 18 -60 19 -85
1z"/>
<path d="M560 1445 c0 -13 4 -14 20 -5 11 6 20 13 20 15 0 3 -9 5 -20 5 -11 0
-20 -7 -20 -15z"/>
<path d="M880 1440 c0 -5 9 -10 20 -10 11 0 20 5 20 10 0 6 -9 10 -20 10 -11
0 -20 -4 -20 -10z"/>
<path d="M1250 1446 c0 -2 7 -9 15 -16 12 -10 15 -10 15 4 0 9 -7 16 -15 16
-8 0 -15 -2 -15 -4z"/>
<path d="M880 1400 c0 -13 11 -13 30 0 12 8 11 10 -7 10 -13 0 -23 -4 -23 -10z"/>
<path d="M1221 1351 c-6 -10 -7 -21 -4 -25 12 -12 44 -6 49 9 4 8 13 15 21 15
8 0 11 5 8 10 -11 18 -64 11 -74 -9z"/>
<path d="M1186 1221 c-11 -18 22 -32 58 -25 44 8 46 19 5 28 -43 8 -57 8 -63
-3z"/>
<path d="M1298 1053 c12 -2 32 -2 45 0 12 2 2 4 -23 4 -25 0 -35 -2 -22 -4z"/>
<path d="M1320 757 c0 -22 21 -67 32 -67 16 0 8 47 -12 65 -18 16 -20 16 -20
2z"/>
<path d="M1818 749 c-11 -6 -18 -22 -18 -38 0 -21 -6 -30 -21 -34 -37 -10 -10
-27 42 -27 30 0 56 6 65 14 21 22 17 26 -26 26 -33 0 -40 4 -40 19 0 10 7 21
15 25 8 3 15 10 15 16 0 13 -10 12 -32 -1z"/>
<path d="M1833 460 c5 -31 35 -57 62 -54 22 2 25 -2 25 -32 0 -29 -3 -34 -24
-34 -44 0 -43 -26 1 -34 89 -17 100 -17 106 -2 7 16 -17 46 -36 46 -7 0 -6 4
3 9 8 6 17 8 21 6 12 -8 -6 50 -22 73 -14 20 -22 22 -53 17 -29 -6 -36 -4 -36
9 0 10 -9 16 -25 16 -19 0 -24 -5 -22 -20z"/>
<path d="M630 1001 c0 -14 18 -23 31 -15 8 4 7 9 -2 15 -18 11 -29 11 -29 0z"/>
<path d="M2990 495 c0 -20 3 -26 9 -17 7 11 19 11 70 1 41 -9 67 -10 77 -4 33
21 12 30 -64 29 -46 -1 -80 3 -84 10 -4 6 -8 -2 -8 -19z"/>
<path d="M3030 305 c0 -13 15 -15 90 -14 63 1 90 5 87 13 -2 7 -36 12 -90 14
-73 2 -87 0 -87 -13z"/>
<path d="M528 593 c6 -2 18 -2 25 0 6 3 1 5 -13 5 -14 0 -19 -2 -12 -5z"/>
<path d="M2795 8500 c-3 -5 -1 -10 4 -10 6 0 11 5 11 10 0 6 -2 10 -4 10 -3 0
-8 -4 -11 -10z"/>
<path d="M845 8490 l-20 -9 20 0 c11 -1 31 -4 45 -7 24 -6 25 -6 5 9 -23 19
-23 19 -50 7z"/>
<path d="M2811 8484 c-7 -8 -11 -17 -9 -20 3 -2 13 5 23 16 10 11 14 20 9 20
-5 -1 -15 -8 -23 -16z"/>
<path d="M774 8307 c3 -34 8 -43 25 -45 25 -4 27 14 5 39 -15 16 -14 17 3 13
24 -7 48 -26 56 -44 5 -13 5 -13 6 0 1 22 -20 43 -61 62 l-38 18 4 -43z"/>
<path d="M690 8317 c0 -18 21 -47 35 -47 16 0 38 34 28 44 -13 12 -33 6 -33
-11 0 -15 -2 -14 -15 3 -8 10 -15 15 -15 11z"/>
<path d="M1845 8240 c4 -6 11 -8 16 -5 14 9 11 15 -7 15 -8 0 -12 -5 -9 -10z"/>
<path d="M767 8125 c-4 -8 -1 -18 6 -22 14 -8 117 -15 117 -7 0 7 -88 44 -105
44 -7 0 -15 -7 -18 -15z"/>
<path d="M2162 8027 c0 -17 -7 -36 -15 -44 -17 -17 -67 -23 -84 -10 -12 9 -15
5 -29 -40 -6 -22 7 -41 37 -53 16 -7 29 -17 29 -22 0 -6 7 -5 15 2 12 10 15 9
15 -5 0 -10 3 -16 6 -12 4 3 -1 25 -10 47 -9 23 -12 39 -6 35 13 -8 43 22 35
34 -8 15 43 61 68 62 l22 0 -24 16 c-38 27 -58 24 -59 -10z"/>
<path d="M2116 8017 c3 -10 9 -15 12 -12 3 3 0 11 -7 18 -10 9 -11 8 -5 -6z"/>
<path d="M1405 7910 c-3 -5 -1 -10 4 -10 6 0 11 5 11 10 0 6 -2 10 -4 10 -3 0
-8 -4 -11 -10z"/>
<path d="M2898 7693 c7 -3 16 -2 19 1 4 3 -2 6 -13 5 -11 0 -14 -3 -6 -6z"/>
<path d="M2200 6991 c-43 -16 -91 -40 -80 -41 3 0 23 7 45 15 46 16 69 19 61
6 -3 -4 -26 -14 -51 -21 -69 -19 -95 -44 -94 -88 1 -20 3 -29 6 -19 4 14 16
17 76 17 98 0 114 -6 119 -41 6 -36 -6 -45 -57 -43 -63 3 -65 3 -65 19 0 8 -4
15 -10 15 -5 0 -7 -7 -4 -15 4 -11 -1 -15 -17 -16 l-24 0 24 -10 c14 -6 21
-15 18 -24 -4 -8 5 -23 20 -35 52 -40 166 -15 203 45 26 43 25 53 -5 50 -14
-2 -23 1 -19 6 3 5 10 7 15 4 5 -4 16 1 25 10 20 20 11 82 -18 122 -12 17 -8
15 11 -7 40 -44 45 -113 15 -175 -13 -26 -13 -28 0 -15 15 16 46 100 46 126 0
9 -7 22 -15 30 -8 8 -12 21 -8 30 3 9 -6 27 -23 45 -25 26 -34 29 -88 28 -34
0 -81 -8 -106 -18z m130 -184 c0 -16 -3 -18 -12 -9 -6 6 -13 21 -15 33 -3 18
-1 20 12 9 8 -7 15 -22 15 -33z m-135 -67 c-3 -5 -16 -10 -28 -10 -18 0 -19 2
-7 10 20 13 43 13 35 0z"/>
<path d="M2498 6946 c2 -17 11 -38 18 -47 7 -8 18 -44 23 -80 5 -35 16 -82 25
-103 12 -29 13 -43 5 -58 -8 -16 -8 -23 2 -29 7 -4 10 -11 7 -15 -15 -14 13
-44 41 -44 24 0 28 -3 24 -21 -5 -17 -2 -19 21 -13 16 4 26 2 26 -5 0 -6 -6
-11 -13 -11 -8 0 -21 -8 -30 -18 -19 -20 -23 -37 -7 -27 5 3 22 -2 36 -12 20
-13 29 -14 32 -5 2 6 10 12 17 12 7 0 23 21 35 48 33 71 51 97 59 83 13 -20
41 -1 41 28 0 52 -62 109 -85 78 -13 -19 -60 -17 -78 3 -9 10 -9 11 1 6 18
-10 15 2 -8 34 -11 16 -19 34 -18 41 2 6 -13 20 -32 31 -51 29 -85 64 -105
108 -23 50 -43 59 -37 16z"/>
<path d="M2424 6573 c-16 -8 -42 -17 -59 -20 -75 -11 -75 -11 -76 11 0 17 -2
16 -11 -7 -17 -46 8 -128 25 -84 4 9 8 8 16 -3 9 -13 12 -13 23 2 12 16 16 15
63 -7 27 -13 51 -23 53 -21 7 8 -50 56 -66 56 -9 0 -24 5 -32 10 -12 8 -9 10
11 10 15 0 47 9 73 20 25 12 58 19 73 18 19 -2 28 2 28 11 0 21 -84 24 -121 4z"/>
<path d="M2730 6419 c0 -5 -4 -8 -9 -4 -6 3 -14 -3 -20 -12 -5 -10 -11 -16
-13 -14 -2 2 -19 -3 -38 -11 -19 -9 -43 -18 -52 -22 -10 -3 -18 -12 -18 -20 0
-12 11 -15 50 -13 40 2 51 6 56 22 8 24 30 46 38 38 10 -10 35 18 29 33 -6 16
-23 19 -23 3z"/>
<path d="M2205 6390 c3 -5 8 -10 11 -10 2 0 4 5 4 10 0 6 -5 10 -11 10 -5 0
-7 -4 -4 -10z"/>
<path d="M2393 6332 c-8 -5 -8 -11 1 -24 11 -15 16 -16 31 -4 30 21 0 48 -32
28z"/>
<path d="M2301 6291 c-11 -7 -10 -14 5 -40 24 -40 38 -40 30 1 -8 40 -17 50
-35 39z"/>
<path d="M2214 6044 c-10 -8 -12 -12 -4 -8 8 4 30 11 50 15 35 7 35 7 4 8 -16
0 -39 -6 -50 -15z"/>
<path d="M3231 5980 c0 -8 11 -28 25 -45 l26 -30 -16 30 c-8 17 -20 37 -25 45
-10 13 -11 13 -10 0z"/>
<path d="M2495 5870 c-40 -7 -21 -18 32 -18 51 -1 63 -7 63 -31 0 -35 -27 -46
-73 -32 -23 6 -49 12 -57 13 -8 1 -18 5 -21 10 -7 10 -59 0 -59 -12 0 -12 34
-38 55 -42 11 -2 20 -10 20 -18 1 -8 12 -33 26 -55 72 -112 76 -146 16 -156
-40 -6 -37 -11 -52 69 -13 65 -30 112 -42 112 -7 0 -22 9 -32 19 -19 19 -20
19 -36 -5 -8 -13 -22 -24 -30 -24 -19 0 -19 -8 1 -27 10 -10 14 -26 11 -42 -4
-18 3 -38 24 -66 16 -22 44 -62 62 -90 18 -27 53 -79 78 -115 24 -36 51 -81
58 -100 8 -19 21 -40 29 -47 7 -6 11 -16 8 -22 -4 -6 0 -27 9 -47 19 -47 19
-77 -1 -120 -11 -23 -14 -47 -11 -71 6 -37 -5 -70 -32 -90 -24 -17 -31 -3 -21
42 12 52 7 54 -15 5 -19 -43 -25 -46 -58 -29 -12 6 4 -13 36 -43 75 -71 75
-84 -9 -184 -36 -43 -71 -89 -77 -101 -7 -12 -33 -58 -59 -102 -46 -77 -59
-123 -38 -136 5 -3 12 7 15 22 8 37 48 123 58 123 4 0 7 6 7 13 0 7 9 18 20
25 12 7 20 23 20 40 0 30 62 109 83 105 7 -2 23 18 35 45 12 26 32 64 43 86
22 42 16 64 -8 28 l-16 -22 -23 25 c-13 15 -24 28 -24 30 0 2 23 1 50 -2 45
-5 50 -4 50 14 0 11 18 38 40 59 42 41 51 64 25 64 -8 0 -15 7 -15 16 0 14 34
90 65 144 8 14 15 42 15 63 0 20 4 37 9 37 5 0 14 13 19 29 9 25 8 30 -9 34
-13 3 -19 14 -19 31 0 14 3 26 6 26 4 0 28 -12 56 -27 65 -35 121 -120 139
-209 7 -35 16 -64 21 -64 4 0 9 24 9 53 3 79 3 85 12 93 4 4 7 17 6 28 0 18
-3 16 -13 -8 -9 -19 -16 -25 -20 -17 -4 7 -1 23 8 36 13 20 14 23 1 19 -9 -4
-16 3 -20 19 -4 13 -19 31 -33 38 -15 8 -32 19 -38 24 -6 6 -21 16 -32 24 -11
8 -18 20 -16 26 3 7 -1 19 -8 26 -27 29 -48 69 -48 94 0 15 -5 35 -10 46 -6
10 -7 19 -3 19 10 0 10 56 1 66 -5 4 -8 16 -8 26 0 33 -27 73 -68 101 -33 23
-38 32 -34 56 3 22 -1 32 -17 41 -25 13 -93 18 -136 10z m132 -138 c31 -24 49
-136 28 -169 -13 -19 -13 -23 -2 -23 9 0 16 -16 20 -43 3 -24 9 -51 13 -60 5
-13 2 -16 -10 -11 -20 8 -21 -14 -1 -40 16 -21 20 -90 9 -145 -5 -25 -12 -31
-31 -31 -32 0 -60 35 -69 85 -3 22 -10 45 -14 50 -13 17 -17 75 -6 75 6 0 4 5
-4 10 -12 8 -11 10 6 10 13 0 24 8 27 20 4 14 0 20 -11 20 -12 0 -17 9 -18 30
-1 26 2 30 25 30 20 0 23 2 11 10 -12 8 -12 10 5 10 17 1 17 3 -5 12 -25 11
-25 11 -2 15 12 3 22 9 22 15 0 5 -6 8 -14 5 -37 -14 -62 78 -34 123 16 24 26
25 55 2z"/>
<path d="M3183 5848 c-25 -33 -44 -103 -37 -138 l7 -35 7 30 c7 28 8 28 9 5
l1 -25 20 30 c16 23 20 26 20 11 0 -29 22 -96 32 -96 4 0 8 17 8 38 0 37 19
76 50 99 13 10 10 17 -25 52 -39 41 -74 52 -92 29z"/>
<path d="M2100 5690 c-8 -4 -26 -13 -40 -19 -24 -11 -24 -11 5 -6 17 3 38 6
48 6 9 0 17 7 17 15 0 16 -8 17 -30 4z"/>
<path d="M1730 5661 c18 -10 143 -20 133 -10 -5 3 -39 9 -78 12 -40 4 -64 3
-55 -2z"/>
<path d="M2116 5616 c-9 -21 -16 -50 -16 -65 1 -25 1 -25 15 -7 8 10 12 23 9
27 -3 5 1 6 8 4 16 -6 22 39 9 63 -7 13 -12 9 -25 -22z"/>
<path d="M3084 5605 c-3 -8 -4 -20 -2 -27 3 -7 7 -1 10 15 6 29 1 36 -8 12z"/>
<path d="M3240 5615 c0 -5 5 -17 10 -25 5 -8 10 -10 10 -5 0 6 -5 17 -10 25
-5 8 -10 11 -10 5z"/>
<path d="M3262 5510 c0 -14 2 -19 5 -12 2 6 2 18 0 25 -3 6 -5 1 -5 -13z"/>
<path d="M3051 5454 c0 -11 3 -14 6 -6 3 7 2 16 -1 19 -3 4 -6 -2 -5 -13z"/>
<path d="M3223 5390 c-6 -17 -8 -30 -3 -30 8 0 24 50 18 56 -2 2 -9 -10 -15
-26z"/>
<path d="M3196 5333 c-6 -14 -5 -15 5 -6 7 7 10 15 7 18 -3 3 -9 -2 -12 -12z"/>
<path d="M3128 5232 c-25 -26 -57 -66 -71 -88 -26 -39 -80 -164 -74 -171 2 -1
23 39 48 90 24 50 59 110 78 132 19 22 44 50 55 63 37 42 9 22 -36 -26z"/>
<path d="M3928 5143 c-4 -97 -11 -152 -21 -173 -17 -33 -33 -106 -42 -184 -2
-26 -12 -71 -20 -99 -8 -28 -15 -75 -15 -104 0 -29 -4 -53 -10 -53 -5 0 -9
-19 -9 -42 1 -24 4 -34 6 -24 3 11 11 25 18 32 17 18 24 -20 31 -171 3 -66 12
-217 21 -335 10 -144 14 -275 10 -398 l-6 -184 35 -45 c25 -32 34 -55 34 -82
0 -21 3 -59 6 -85 l7 -47 35 63 c66 119 66 119 24 165 -59 66 -88 126 -98 208
-3 22 -7 45 -9 52 -8 24 25 199 53 288 46 143 46 144 19 154 -32 12 -36 25
-44 144 -5 86 -10 107 -30 134 -35 46 -73 165 -73 230 0 62 12 66 46 15 l22
-32 5 28 c3 15 11 47 18 71 11 38 10 45 -4 56 -14 10 -16 24 -11 86 3 41 5 87
5 103 -1 15 2 33 7 40 16 20 24 69 11 60 -9 -5 -10 2 -5 27 17 80 22 129 15
131 -5 2 -12 28 -17 58 -7 49 -9 39 -14 -87z"/>
<path d="M2250 5224 c0 -2 9 -8 20 -14 11 -6 20 -7 20 -2 0 6 -9 12 -20 15
-11 3 -20 3 -20 1z"/>
<path d="M4407 5093 c-11 -10 -8 -83 3 -83 6 0 10 20 10 45 0 46 -2 50 -13 38z"/>
<path d="M2310 5036 c0 -23 39 -82 40 -60 0 15 -29 84 -35 84 -3 0 -5 -11 -5
-24z"/>
<path d="M2380 4936 c0 -2 8 -10 18 -17 15 -13 16 -12 3 4 -13 16 -21 21 -21
13z"/>
<path d="M1833 4904 c3 -10 13 -46 22 -79 33 -120 35 -123 29 -45 -5 72 -22
121 -46 136 -7 5 -9 1 -5 -12z"/>
<path d="M2937 4893 c-4 -3 -7 -19 -7 -35 0 -37 25 -47 52 -21 16 17 18 24 9
42 -11 20 -41 28 -54 14z"/>
<path d="M2307 4680 c9 -37 12 -40 39 -40 20 0 24 5 24 29 0 25 -4 29 -35 33
-32 4 -34 3 -28 -22z m43 -10 c0 -5 -4 -10 -10 -10 -5 0 -10 5 -10 10 0 6 5
10 10 10 6 0 10 -4 10 -10z"/>
<path d="M1798 4638 c5 -7 12 -22 14 -33 5 -18 6 -19 13 -2 7 18 -9 47 -27 47
-7 0 -7 -4 0 -12z"/>
<path d="M3745 4409 c-4 -6 -5 -12 -2 -15 2 -3 7 2 10 11 7 17 1 20 -8 4z"/>
<path d="M2994 4285 c-10 -26 4 -45 35 -45 31 0 41 13 33 43 -6 22 -60 24 -68
2z"/>
<path d="M1993 4154 c-3 -8 -1 -20 5 -26 16 -16 47 -5 50 20 3 18 -1 22 -23
22 -14 0 -28 -7 -32 -16z m37 -14 c0 -5 -5 -10 -11 -10 -5 0 -7 5 -4 10 3 6 8
10 11 10 2 0 4 -4 4 -10z"/>
<path d="M4273 4123 c9 -2 23 -2 30 0 6 3 -1 5 -18 5 -16 0 -22 -2 -12 -5z"/>
<path d="M2100 4064 c-56 -47 -79 -73 -80 -88 0 -4 11 -1 25 8 14 9 25 14 25
11 0 -3 6 -1 13 4 6 6 26 22 43 36 22 17 31 33 30 50 0 14 -1 25 -1 25 0 0
-25 -21 -55 -46z m50 7 c0 -5 -7 -12 -16 -15 -14 -5 -15 -4 -4 9 14 17 20 19
20 6z"/>
<path d="M4575 4060 c-3 -5 -1 -10 4 -10 6 0 11 5 11 10 0 6 -2 10 -4 10 -3 0
-8 -4 -11 -10z"/>
<path d="M4600 4030 c0 -5 5 -10 11 -10 5 0 7 5 4 10 -3 6 -8 10 -11 10 -2 0
-4 -4 -4 -10z"/>
<path d="M4656 3893 c-6 -14 -5 -15 5 -6 7 7 10 15 7 18 -3 3 -9 -2 -12 -12z"/>
<path d="M1902 3877 c-27 -28 -16 -52 18 -39 20 8 21 9 5 15 -14 6 -15 10 -5
22 21 25 5 27 -18 2z"/>
<path d="M3064 3692 c-24 -17 -24 -42 2 -54 20 -9 28 -9 40 4 28 28 -9 73 -42
50z m26 -32 c0 -5 -2 -10 -4 -10 -3 0 -8 5 -11 10 -3 6 -1 10 4 10 6 0 11 -4
11 -10z"/>
<path d="M4106 3192 c-5 -9 2 -63 10 -71 2 -2 4 14 4 37 0 41 -4 50 -14 34z"/>
<path d="M3036 3125 c-19 -20 -10 -44 20 -51 28 -7 44 2 44 25 0 37 -37 52
-64 26z m44 -15 c0 -5 -4 -10 -10 -10 -5 0 -10 5 -10 10 0 6 5 10 10 10 6 0
10 -4 10 -10z"/>
<path d="M4123 2955 c0 -22 2 -30 4 -17 2 12 2 30 0 40 -3 9 -5 -1 -4 -23z"/>
<path d="M4168 2634 c-29 -15 -38 -44 -15 -44 8 0 22 9 32 20 10 12 25 18 32
15 8 -2 12 -1 8 4 -3 5 1 12 7 14 7 3 2 6 -12 6 -14 0 -37 -7 -52 -15z"/>
<path d="M3040 2430 c0 -11 4 -20 8 -20 4 0 8 9 8 20 0 11 -4 20 -8 20 -4 0
-8 -9 -8 -20z"/>
<path d="M3100 2424 c0 -14 4 -23 10 -19 6 3 10 15 10 26 0 10 -4 19 -10 19
-5 0 -10 -12 -10 -26z"/>
<path d="M2920 2397 l0 -35 63 -6 c34 -3 103 -8 153 -10 99 -6 104 -4 104 50
0 22 -3 24 -55 24 -42 0 -55 -3 -55 -15 0 -11 -12 -15 -50 -15 -38 0 -50 4
-50 15 0 11 -11 15 -39 15 -22 0 -46 3 -55 6 -13 5 -16 -1 -16 -29z"/>
<path d="M4548 2293 c-32 -5 -36 -26 -12 -51 17 -16 86 -30 157 -31 l38 -1
-18 30 c-9 17 -24 30 -33 30 -9 0 -20 4 -25 9 -13 11 -73 19 -107 14z"/>
<path d="M4564 2171 c4 -6 14 -11 22 -11 24 0 17 -40 -8 -42 -13 -1 24 -4 82
-7 58 -4 107 -5 108 -4 10 5 -11 40 -30 52 -29 18 -184 29 -174 12z"/>
<path d="M4650 2057 c-19 -5 -40 -13 -47 -19 -6 -5 -38 -12 -70 -15 l-58 -6
49 -13 c35 -9 56 -10 75 -2 28 11 49 14 141 16 45 2 60 6 60 17 0 13 -17 18
-95 29 -11 1 -36 -2 -55 -7z"/>
<path d="M4468 1972 c-24 -5 -23 -19 2 -27 16 -5 60 9 60 19 0 6 -44 12 -62 8z"/>
<path d="M4675 1970 c-16 -4 -52 -17 -78 -29 -27 -11 -54 -21 -60 -21 -27 0
-97 -34 -97 -47 0 -17 30 -29 39 -16 3 6 24 13 46 16 22 3 73 17 114 31 48 18
98 28 142 29 38 1 69 3 69 4 0 1 -9 11 -20 21 -22 20 -96 26 -155 12z"/>
<path d="M800 80 c0 -5 9 -10 20 -10 11 0 20 5 20 10 0 6 -9 10 -20 10 -11 0
-20 -4 -20 -10z"/>
<path d="M3338 13 c7 -3 16 -2 19 1 4 3 -2 6 -13 5 -11 0 -14 -3 -6 -6z"/>
</g>
</svg>
